<?xml version="1.0" encoding="UTF-8"?>
<svg id="Layer_1" xmlns="http://www.w3.org/2000/svg" version="1.1" viewBox="0 0 150 150">
  <!-- Generator: Adobe Illustrator 30.0.0, SVG Export Plug-In . SVG Version: 2.1.1 Build 123)  -->
  <defs>
    <style>
      .st0 {
        fill: #cba246;
      }
    </style>
  </defs>
  <path class="st0" d="M79.7,96.56c-.09.43.04.69.39.78.35.08.74.22,1.17.39-.34-.43-.87-.83-1.56-1.17M64.75,98.38l.26.13h.13l.26-.13c0-.09-.09-.13-.26-.13,0-.09-.05-.13-.13-.13-.17,0-.3.04-.39.13-.09.08-.05.17.13.26v-.13ZM64.75,98.38l.26.13h.13l.26-.13c0-.09-.09-.13-.26-.13,0-.09-.05-.13-.13-.13-.17,0-.3.04-.39.13-.09.08-.05.17.13.26v-.13ZM63.85,98.64h.13l.26-.13h-.39c-.17,0-.3.04-.39.13h.39ZM63.85,98.64h.13l.26-.13h-.39c-.17,0-.3.04-.39.13h.39ZM58,99.55h-.26v.13h.39c.17,0,.3-.05.39-.13h-.52ZM58,99.55h-.26v.13h.39c.17,0,.3-.05.39-.13h-.52ZM58.52,99.81h-.39c-.17,0-.34.08-.52.26h-.13c-.17,0-.3.13-.39.39l1.43-.65ZM56.83,100.33c.17,0,.26-.04.26-.13h.13l.13-.13v-.13c0,.08-.04.13-.13.13h-.58c-.22,0-.41.04-.58.13-.26,0-.44.04-.52.13h-.13.13-.26v.13-.13h-.78l-.65.26c-.09,0-.31.08-.65.26h-.13c-.18.08-.32.17-.45.26-.13.08-.28.13-.45.13-.09,0-.18.02-.26.06-.09.04-.18.06-.26.06h-1.04c-.26,0-.43.04-.52.13h-.13c-.26,0-.48.08-.65.26l-.39.26.39-.13,1.56-.26h.13c.08-.09.22-.13.39-.13h.78v-.13h.78c.43-.17.82-.32,1.17-.45.35-.13.73-.28,1.17-.46h.39c.43,0,.78-.04,1.04-.13h.13ZM58.13,99.81c-.17,0-.34.08-.52.26h-.13c-.17,0-.26.04-.26.13l.13-.13v-.13l.13-.13-.26.26h-.58c-.22,0-.41.04-.58.13-.26,0-.44.04-.52.13h-1.04l-.65.26c-.09,0-.31.08-.65.26h-.13c-.18.08-.32.17-.45.26-.13.08-.28.13-.45.13-.09,0-.18.02-.26.06-.09.04-.18.06-.26.06h-1.04c-.26,0-.43.04-.52.13h-.13c-.26,0-.48.08-.65.26l-.52.26h.13-.13l.52-.13,1.56-.26h.13c.08-.09.22-.13.39-.13h.78v-.13h.78c.43-.17.84-.32,1.23-.45.39-.13.76-.28,1.1-.46h.39c.43,0,.78-.04,1.04-.13h.13c.17,0,.26-.04.26-.13v.26c.61,0,1.21-.06,1.82-.19.6-.13,1.08-.26,1.43-.39.35-.13.41-.19.19-.19s-.89.04-2.01.13h-.39ZM44.74,103.06h.52l.26-.26h1.04c.09,0,.13.02.13.06s.04.07.13.07l.52-.39c.26,0,.47-.05.65-.13l.13-.13h-1.82c-.09,0-.18.05-.26.13,0,.08-.02.13-.06.13-.05,0-.07.04-.07.13l-.26.13h-.13c-.18-.09-.26-.22-.26-.39l-.26.26c-.09.08-.17.13-.26.13h-.13v.26h.13ZM44.74,103.06h.52l.26-.26h1.04c.09,0,.13.02.13.06s.04.07.13.07l.52-.39c.26,0,.47-.05.65-.13l.13-.13h-1.82c-.09,0-.18.05-.26.13,0,.08-.02.13-.06.13-.05,0-.07.04-.07.13l-.26.13h-.13c-.18-.09-.26-.22-.26-.39l-.26.26c-.09.08-.17.13-.26.13h-.13v.26h.13ZM43.44,103.06h-.13c-.09,0-.13.04-.13.13v.13h.13c.09,0,.15.02.19.07.04.04.11.06.19.06h.13v-.39h-.39ZM43.44,103.06h-.13c-.09,0-.13.04-.13.13v.13h.13c.09,0,.15.02.19.07.04.04.11.06.19.06h.13v-.39h-.39ZM41.1,104.75c-.17.08-.48.13-.91.13.17-.18.48-.22.91-.13M37.2,59.26c0,.09-.04.13-.13.13.09,0,.13-.04.13-.13M35.12,106.7h-.39l.13-.26h.13c.08.08.13.17.13.26M34.61,62.51h.26l.13-.13v-.13h-.26c-.09,0-.13.05-.13.13v.13ZM34.74,62.25c-.09,0-.13.05-.13.13v.13h.26l.13-.13v-.13h-.26ZM31.23,71.22l.26-.13v-.26h-.26v.13c-.09.09-.18.13-.26.13l-.13.13h.39ZM31.23,70.96c-.09.09-.18.13-.26.13l-.13.13h.39l.26-.13v-.26h-.26v.13ZM30.71,71.74h-.39l-.26.39-.26.26v.13h.52l.13-.13.39-.52v-.13h-.13ZM30.71,71.74h-.39l-.26.39-.26.26v.13h.52l.13-.13.39-.52v-.13h-.13ZM28.76,78.89c.08.17.08.48,0,.91-.09.43-.26.56-.52.39.08-.17.15-.39.19-.65.04-.26.15-.48.32-.65M28.37,59.91v-.13c0-.09.02-.15.06-.19.04-.04.06-.11.06-.2v-.13l.13-.26v-.13c-.35.09-.52.3-.52.65v.39c0,.09.04.13.13.13h.13v-.13ZM28.37,59.91v-.13c0-.09.02-.15.06-.19.04-.04.06-.11.06-.2v-.13l.13-.26v-.13c-.35.09-.52.3-.52.65v.39c0,.09.04.13.13.13h.13v-.13ZM26.81,78.63l.78-.26c.17-.17.26-.3.26-.39l.13-.13v-.78l-.65.39v.13c-.09.18-.15.32-.2.45-.04.13-.15.28-.32.46v.13ZM27.33,77.46v.13c-.09.18-.15.32-.2.45-.04.13-.15.28-.32.46v.13h-.13l.91-.26c.17-.17.26-.3.26-.39l.13-.13v-.78l-.65.39ZM26.29,63.68c.17,0,.3-.04.39-.13.08-.08.13-.17.13-.26v-.39l-.13-.13c0,.09-.04.17-.13.26l-.13.13c0,.09-.02.15-.07.2-.05.04-.06.11-.06.19v.13ZM26.29,63.68c.17,0,.3-.04.39-.13.08-.08.13-.17.13-.26v-.39l-.13-.13c0,.09-.04.17-.13.26l-.13.13c0,.09-.02.15-.07.2-.05.04-.06.11-.06.19v.13ZM26.16,64.2l.13-.13.13-.13v-.13h-.26v.13c-.18,0-.26.04-.26.13v.13h.26ZM26.16,64.2l.13-.13.13-.13v-.13h-.26v.13c-.18,0-.26.04-.26.13v.13h.26ZM26.03,86.42c.26.35.13.52-.39.52,0-.35.13-.52.39-.52M25.25,66.67c-.26.26-.35.39-.26.39-.09.09-.17.13-.26.13l-.26.26v.39h.13c.09,0,.22-.08.39-.26,0-.08.02-.13.06-.13.05,0,.07-.04.07-.13.08,0,.13-.04.13-.13.26-.26.26-.39,0-.39v-.13ZM24.6,67.84c.09,0,.22-.08.39-.26,0-.08.02-.13.06-.13.05,0,.07-.04.07-.13.08,0,.13-.04.13-.13.26-.26.26-.39,0-.39v-.13c-.26.26-.35.39-.26.39-.09.09-.17.13-.26.13l-.26.26v.39h.13ZM24.08,69.79h.13v-.13c.17-.34.26-.61.26-.78v-.13l.13-.13c0-.09.05-.17.13-.26-.08,0-.17-.04-.26-.13h-.13c0,.18-.05.3-.13.39-.09.26-.19.48-.32.65-.13.18-.15.34-.07.52h.26ZM24.34,68.23c0,.18-.05.3-.13.39-.09.26-.19.48-.32.65-.13.18-.15.34-.07.52h.39v-.13c.17-.34.26-.61.26-.78v-.13l.13-.13c0-.09.05-.17.13-.26-.08,0-.17-.04-.26-.13h-.13ZM24.6,88.37c.17-.09.22.02.13.32-.08.3,0,.32.26.07-.09.17-.17.32-.26.45-.08.13-.22.28-.39.45.26.08.26.24,0,.46-.26.22-.13.32.39.32,0,.17-.15.28-.46.32-.3.04-.5.15-.58.32-.26-.17-.28-.32-.06-.46.22-.13.24-.24.06-.32.17-.09.28-.18.33-.26.04-.09.15-.22.32-.39-.18-.18-.31-.24-.39-.2-.09.04-.22.02-.39-.06.17-.18.39-.31.65-.39.26-.08.39-.3.39-.65M23.17,92.4c0-.18.13-.18.39,0,.26.17.34.08.26-.26.17.26.13.46-.13.59-.26.13-.48.28-.65.45,0-.18.11-.3.32-.39.22-.08.15-.22-.19-.39M23.17,86.68h.26c.17-.18.26-.35.26-.52s.09-.35.26-.52h-.78c0,.09.04.17.13.26v.26c-.09,0-.13.04-.13.13l-.13.13v.26h.13ZM23.17,85.64c0,.09.04.17.13.26v.26c-.09,0-.13.04-.13.13l-.13.13v.26h.39c.17-.18.26-.35.26-.52s.09-.35.26-.52h-.78ZM23.04,93.57c.08.09.17.22.26.39.08.17,0,.3-.26.39.08-.18.08-.32,0-.46-.09-.13-.09-.24,0-.32M23.56,86.94c-.09,0-.18-.04-.26-.13h-.39v.26h.39l.26-.13ZM23.3,87.07l.26-.13c-.09,0-.18-.04-.26-.13h-.39v.26h.39ZM22.78,95c.17.08.24.22.2.39-.05.17-.24.17-.59,0,0-.09.06-.13.19-.13s.19-.09.19-.26M22.78,95.91c-.17.26-.28.58-.32.98-.04.39-.32.67-.84.84,0-.17.13-.43.39-.78.26-.34.3-.56.13-.65,0-.18.06-.26.19-.26s.28-.05.45-.13M21.35,90.71c.17,0,.28.02.32.06.04.04.15.06.32.06h.26l-.13-.13c-.09-.09-.13-.18-.13-.26l.13-.13c0-.09.04-.13.13-.13,0-.09.04-.17.13-.26h-.39l-.39.52-.26.26ZM21.35,90.71c.17,0,.28.02.32.06.04.04.15.06.32.06h.26l-.13-.13c-.09-.09-.13-.18-.13-.26l.13-.13c0-.09.04-.13.13-.13,0-.09.04-.17.13-.26h-.39l-.39.52-.26.26ZM19.66,81.75c0,.08.13.08.39,0,.26-.09.48-.13.65-.13,0-.09-.09-.13-.26-.13-.35.17-.61.26-.78.26M20.31,99.94c-.18.08-.28.17-.32.26-.05.08-.15.22-.32.39-.18-.17-.18-.32,0-.45.17-.13.39-.19.65-.19M19.53,81.75v1.04c-.09,0,.08-.18.52-.52.43-.35.65-.56.65-.65.09-.09,0-.13-.26-.13-.18,0-.43.08-.78.26h-.13ZM20.57,79.8c-.26.09-.44.17-.52.26-.09.08-.22.22-.39.39,0,.09-.05.18-.13.26-.09.26-.09.43,0,.52h.13c.17-.08.26-.17.26-.26s.04-.18.13-.26c.08-.17.15-.32.2-.46.04-.13.15-.28.32-.45M19.66,81.22c.17-.08.26-.17.26-.26s.04-.18.13-.26c.08-.17.15-.32.2-.46.04-.13.15-.28.32-.45-.26.09-.44.17-.52.26-.09.08-.22.22-.39.39,0,.09-.05.18-.13.26-.09.26-.09.43,0,.52h.13ZM18.75,83.56c-.09.26-.22.58-.39.97-.17.39-.17.67,0,.85-.17-.09.04-.43.65-1.04.26-.35.52-.69.78-1.04.26-.35.43-.61.52-.78-.09.08-.32.3-.72.65-.39.34-.54.52-.45.52l-.13.13c.09,0,.13-.05.13-.13-.09,0-.13-.02-.13-.07,0-.04-.08-.06-.26-.06M18.23,85.91c0,.26-.08.52-.26.78-.17.26-.3.48-.39.65,0,.09-.02.13-.07.13-.04,0-.06.04-.06.13v.13h.39c.26-.09.48-.48.65-1.17l.13-.13c0-.26.04-.48.13-.65h-.52v.13ZM17.84,87.72c.26-.09.48-.48.65-1.17l.13-.13c0-.26.04-.48.13-.65h-.52v.13c0,.26-.08.52-.26.78-.17.26-.3.48-.39.65,0,.09-.02.13-.07.13-.04,0-.06.04-.06.13v.13h.39ZM18.62,102.54c-.18-.26-.32-.32-.45-.19-.13.13-.28.19-.46.19.08.52.04,1.06-.13,1.63-.17.56-.21,1.15-.13,1.76l.52-.65c.09-.08.13-.26.13-.52.09-.26.13-.61.13-1.04v-.39c.17-.43.3-.69.39-.78M18.62,102.54c-.18-.26-.32-.32-.45-.19-.13.13-.28.19-.46.19.08.52.04,1.06-.13,1.63-.17.56-.21,1.15-.13,1.76l.52-.65c.09-.08.13-.26.13-.52.09-.26.13-.61.13-1.04v-.39c.17-.43.3-.69.39-.78M17.71,88.5c-.43,0-.65.43-.65,1.3h.13c.18-.09.28-.28.32-.58.05-.31.11-.54.2-.72M17.71,88.5c-.43,0-.65.43-.65,1.3h.13c.18-.09.28-.28.32-.58.05-.31.11-.54.2-.72M38.24,105.4l.13-.13c-.52.08-.89.26-1.1.52-.22.26-.63.39-1.23.39.17-.43.41-.56.71-.39.3.17.45.04.45-.39-.61,0-1.04.13-1.3.39-.26.26-.61.48-1.04.65-.26-.43-.52-.46-.78-.06-.26.39-.61.58-1.04.58-.18.17-.5.22-.98.13-.48-.08-.8.04-.97.39-.18-.18-.44-.18-.78,0-.35.17-.52.35-.52.52s-.06.09-.19-.26c-.13-.35-.24-.48-.32-.39v.26c-.26,0-.5.15-.72.46-.22.3-.46.63-.72.97-.26.34-.5.65-.72.91-.22.26-.46.35-.71.26-.44.43-.74.76-.91.98-.18.22-1,.37-2.47.45-.96.08-1.69.06-2.21-.07-.52-.13-.99-.28-1.43-.45-.43-.17-.87-.39-1.3-.65-.43-.26-.99-.52-1.69-.78-1.04-.52-1.8-.89-2.27-1.11-.48-.22-.98-.63-1.49-1.23l.39-.52c-.43-.35-.74-.5-.91-.45-.17.04-.35-.33-.52-1.11.09-.08.24-.08.45,0,.22.08.46.08.72,0-.17-.69-.19-1.52-.07-2.47.13-.95.15-1.86.07-2.73.43-.26.78-.89,1.04-1.89.26-1,.35-1.8.26-2.4.18.08.26.02.26-.19s.09-.32.26-.32c.69-3.47,1.63-6.74,2.8-9.81,1.17-3.08,2.36-6.13,3.57-9.16.26.17.28.37.07.58-.22.22-.28.5-.2.84.52-.17.78-.54.78-1.1s.17-.93.52-1.11c.08-.52.26-1.08.52-1.69.26-.6.6-1.12,1.04-1.56-.26-.35-.3-.74-.13-1.17.17-.43.34-.78.52-1.04-.87.61-1.43,1.58-1.69,2.93-.26,1.34-.74,2.45-1.43,3.31,1.39-4.59,3.06-8.91,5.01-12.93,1.95-4.03,3.79-8.21,5.52-12.54.69-.95,1.32-2.06,1.89-3.31.56-1.26,1.19-2.4,1.88-3.44-.09-.43.07-.75.45-.97.39-.22.5-.5.33-.85.26-.26.47-.82.65-1.69-.09-.17-.18-.19-.26-.06-.09.13-.17.19-.26.19s-.02-.13.2-.39c.22-.26.46-.3.71-.13-.34-.43-.32-.82.07-1.17.39-.34.58-.87.58-1.56h.65c0-.17.13-.47.39-.91,0-.17-.05-.21-.13-.13-.09.09-.18.22-.26.39.86-2.43,2.01-5.09,3.44-7.99,1.43-2.9,2.67-5.61,3.71-8.12,1.21-3.29,2.49-6.39,3.83-9.29,1.34-2.9,2.58-5.95,3.7-9.16-.18-.26-.37-.45-.58-.58-.22-.13-.41-.37-.58-.71.17-.52.43-.82.78-.91,1.47.18,2.94.41,4.42.72,1.47.31,2.47,1.19,2.99,2.67-.43,1.13-.69,2.49-.78,4.09-.09,1.61-.39,3.01-.91,4.22-.43.87-.69,1.78-.78,2.73-.09.95-.3,1.91-.65,2.86l-4.68,10.4c-.26.78-.61,1.78-1.04,2.99-.44,1.22-.83,2.08-1.17,2.6-.18.35-.31.63-.39.84-.09.22-.22.54-.39.98-1.04,1.99-1.97,3.86-2.8,5.59-.83,1.73-1.71,3.47-2.67,5.2,0,.18-.06.29-.19.33-.13.04-.19.11-.19.19-1.13,1.56-1.95,2.99-2.47,4.29.17,0,.3.05.39.13-.61.69-.93,1.35-.98,1.95-.04.61-.41,1.13-1.1,1.56-.09.26-.05.32.13.19.17-.13.22-.07.13.19-.43.43-.67.85-.72,1.23-.05.39-.28.8-.72,1.24-.69,0-1.04.17-1.04.52.17.18.26.15.26-.06s.13-.28.39-.2c-.18.26-.39.56-.65.91-.26.35-.43.61-.52.78,0,.17.17.26.52.26-.17.35-.39.56-.65.65-.26.08-.48.26-.65.52.26.18.45.18.58,0,.13-.17.28-.17.46,0-.18.18-.32.39-.46.65-.13.26-.32.31-.58.13.26.52.24,1.02-.07,1.49-.3.48-.67.85-1.1,1.11,0,.17.06.22.19.13.13-.08.2-.04.2.13-.35.61-.58,1.26-.72,1.95-.13.69-.54,1.17-1.23,1.43.17.87.06,1.58-.33,2.14-.39.56-.63,1.23-.71,2.01-.18.09-.32.15-.45.2-.13.04-.2.15-.2.32h.39c-.43.87-.89,1.8-1.36,2.79-.48,1-.8,1.93-.98,2.8-.61,0-.95.32-1.04.97-.09.65-.35,1.19-.78,1.63.35,0,.61.09.78.26-.18.52-.35.97-.52,1.36s-.35.85-.52,1.36c-.69-.09-1.09-.05-1.17.13-.09.17-.22.35-.39.52.17.26.3.3.39.13.08-.17.35-.22.78-.13,0,.17-.13.3-.39.39-.26.08-.3.26-.13.52-.26.08-.52.08-.78,0l-.52,2.86c-.18,0-.26-.05-.26-.13s-.09-.13-.26-.13c.35-.43.54-.89.58-1.36.04-.48.07-.93.07-1.36-.43,0-.72.11-.85.32-.13.22-.22.48-.26.78-.04.3-.11.58-.19.85-.09.26-.3.43-.65.52.35.26.3.56-.13.91,0,.08.21.22.65.39-.43,0-.71.13-.84.39-.13.26-.24.52-.32.78.08.09.26.13.52.13-.7.95-1.21,2.03-1.56,3.25-.26-.18-.24-.48.06-.91.3-.43.41-.87.32-1.3-.61.61-1,1.34-1.17,2.21-.17.86-.35,1.65-.52,2.34.43-.17.65-.54.65-1.1s.26-.93.78-1.1c-.43,1.12-.65,2.16-.65,3.12,0,.17.11.19.32.06s.28-.02.2.32c-.61-.17-.95-.02-1.04.45-.09.48-.22.8-.39.98h-.39c-.35.95-.57,1.86-.65,2.73-.09.86-.13,1.82-.13,2.86.09.17.13.19.13.06s.08-.15.26-.06c.08.43.24.65.46.65s.41.17.58.52c5.98-2.17,11.93-4.18,17.87-6.05,5.93-1.86,12.41-3.18,19.43-3.96.69,0,1.17-.06,1.43-.19.26-.13.78-.2,1.56-.2-.18-.09-.13-.15.13-.19.26-.05.47-.11.65-.19h4.03c1.12-.26,2.45-.43,3.96-.52,1.52-.08,2.99-.04,4.42.13,1.43.17,2.77.46,4.03.85,1.25.39,1.86-.11,2.64.67-.17.08.18.23.22.32.04.08-.26-.19-.17-.14.09.04-.23-.69-.14-.56.08.13.4.44.32.7-.23-2.39,1.01-.31,1.14-.18s-1.45-1.85-1.45-1.59c-.09-.26,1.46,1.4,1.29,1.36-.17-.04-1.27,1.24-1.44,1.07-.35.17-.34-1.71-.04-1.62.3.08-.07.79-.24.97,0,.08.18-1.05,0-1.3-1.24-1.75-.23,1.11-.74.98-.52-.13-.57,1.32-1.17,1.41l1.76-.91c-.35-.26-1.15.78-1.46,1.12-.3.34.8-.42.63-.59-.17-.18-1.37.06-1.06.15.3.08,1.14.22,1.14.04-.09-.17-.17-.69-.39-.61-.22.08-.28-.66-.62-.83l-.13,1.4c-.26,0-.13.35-.39.27-.69-.18-1.57.36-2.65.36s-1.98,1.11-2.68,1.36c-.18.09-.24.04-.2-.13.04-.18-.02-.35-.19-.52v.65l-.9-.8-.07.61c-.69-.09-1.69.24-3.12.32-1.43.09-2.77.22-4.03.39-1.26.17-2.19.32-2.8.45-.61.13-.43.19.52.19v.39c.17-.18.54-.32,1.1-.46.56-.13.98-.2,1.23-.2s.33.05.2.13-.2.17-.2.26h.52c0-.18.35-.28,1.04-.32.69-.05,1.26-.15,1.69-.32,0,.17.08.22.26.13.17-.09.3-.18.39-.26.69-.18,1.41-.15,2.15.06.73.22,1.86-2,2.64-2.17l.63.81-.32-.27c-.18.17,0,0,.22-.13.22-.13.17-.34,0,0-1.65.17-3.2,1.15-4.84,1.28-1.65.13-3.28,1.38-4.75,1.2.17.08.21.15.13.19-.09.04-.26.08-.52.13-.26.04-.5.07-.72.07h-.45c-.87,0-1.47.19-1.82.58-.35.39-.87.58-1.56.58,0-.26-.13-.48-.39-.65-1.56.61-3.25.91-5.07.91.08.17.17.26.26.26s.05.13-.13.39c-.18-.69-.26-.69-.26,0-.18,0-.28-.08-.32-.26-.05-.18-.16-.26-.32-.26-.09,0-.13.09-.13.26v.26c-.7,0-1.24.09-1.63.26-.39.17-.89.22-1.5.13,0-.18.04-.24.13-.19.08.04.13-.02.13-.2-.18,0-.39.15-.65.45-.26.3-.61.41-1.04.33l.78-.26c-1.13,0-1.65.26-1.56.78h-1.3c0-.09.08-.13.26-.13s.26-.09.26-.26c-.43,0-.67.05-.72.13-.04.09-.15.22-.32.39-.17-.18-.3-.22-.39-.13-.09.08-.22.08-.39,0l-.78.39h-.13.13l-.13.13c-.87.6-1.78.65-2.73.13-.44.34-.89.54-1.36.58-.48.04-.76.2-.85.45v.13h-.13Z"/>
  <path class="st0" d="M122.11,88.54c-.09,0-.13.04-.14.12l.14-.12ZM121.57,88.91c.17,0,.3-.03.4-.11v-.13s-.39-.02-.39-.02c-.09,0-.13.04-.14.12l.12.14ZM121.32,88.63c0,.09-.05.13-.13.12-.18.08-.31.1-.39.05-.09-.05-.17-.03-.26.05-.09,0-.13.04-.14.12.18-.08.46-.04.84.1.39.15.66.19.84.11l.27-.25c-.08,0-.17.02-.26.05-.09.04-.18.06-.26.05h-.26s0-.14,0-.14h-.13s-.12-.14-.12-.14v-.13ZM121.32,88.63c0,.09-.05.13-.13.12-.18.08-.31.1-.39.05-.09-.05-.17-.03-.26.05-.09,0-.13.04-.14.12.18-.08.46-.04.84.1.39.15.66.19.84.11l.27-.25c-.08,0-.17.02-.26.05-.09.04-.18.06-.26.05h-.26s0-.14,0-.14c.17,0,.3-.03.4-.11v-.13s.14-.12.14-.12c-.09,0-.13.04-.14.12l-.39-.02c-.09,0-.13.04-.14.12l.12.14h-.13s-.12-.14-.12-.14v-.13ZM118.38,93.18c-.35.16-.77.25-1.25.27-.48.02-.46,0,.07-.06.27-.16.66-.23,1.18-.2M115.11,93.68c.18-.17.42-.24.72-.23.3.01.54-.02.72-.1-.18.17-.43.26-.73.29-.31.03-.54.04-.71.03M123.89,89.41c-.09,0-.13.02-.13.06,0,.05-.05.07-.13.06-.09,0-.13-.03-.13-.07,0-.04.05-.06.13-.06l.14-.12c-.08-.09-.25-.14-.51-.15-.26-.01-.48-.02-.65-.03l-.14.12c0,.09.04.13.12.14l.52.02h.26c-.17,0-.28.02-.33.06-.05.04-.11.06-.2.06l-5.71-.27-1.06.34c-.44.07-.91.07-1.43,0-.52-.07-1.04-.07-1.56,0,0,.09-.03.15-.07.19-.05.04-.07.11-.08.19l.53-.11h.26s7.8.11,7.8.11c.17,0,.37.04.58.09.21.05.41.08.58.09l.27-.12h.26s.27-.24.27-.24c.08,0,.13-.04.14-.12.08,0,.13-.04.14-.12l.14-.12ZM111.85,93.66c.17,0,.34.04.52.09.17.05.21.16.11.33-.08-.18-.25-.23-.51-.15-.27.08-.3-.01-.12-.26M121.52,89.94l-7.8-.1c-.17,0-.3,0-.39.05-.09.04-.22.06-.39.05l-1.31.07-.52-.02c.18-.08.33-.16.47-.24.13-.08.29-.12.46-.11.27-.07.61-.1,1.05-.08.52-.06,1.04-.06,1.56,0,.52.07,1,.07,1.43,0l1.06-.34,5.71.27c.08,0,.15-.01.2-.06.04-.04.15-.06.33-.05h-.26s-.52-.04-.52-.04c-.09,0-.13-.05-.12-.14l.14-.12c.17,0,.39.02.65.03.26.01.43.07.51.15l-.14.12c-.09,0-.13.02-.13.06,0,.05.04.07.13.07.08,0,.13-.02.13-.06,0-.04.05-.06.13-.06l-.14.12c0,.08-.05.13-.14.12,0,.08-.05.12-.14.12l-.27.25h-.26s-.27.11-.27.11c-.18,0-.37-.04-.58-.09-.22-.06-.41-.09-.58-.09M109.62,88.61c-.09,0-.18.04-.27.12l.52-.11h-.26ZM109.73,97.33c-.18.16-.32.31-.41.44-.09.13-.32.18-.66.16.18-.16.34-.31.48-.43.14-.12.33-.18.59-.17M109.09,88.72l-.14.12.4-.11h-.26ZM109.09,88.72l-.14.12,1.56.07-.12-.14-.25-.14-.52-.02c-.09,0-.18.04-.27.12h-.26ZM108.04,100.25c-.03.69-.32,1.28-.86,1.78.12-.69.4-1.28.86-1.78M108.03,97.52c-.09.08-.27.11-.53.1l-.13.12v.13s.12,0,.12,0l.52.02c.08,0,.13-.04.14-.12v-.13s-.12-.13-.12-.13ZM108.03,97.52c-.09.08-.27.11-.53.1l-.13.12v.13s.12,0,.12,0l.52.02c.08,0,.13-.04.14-.12v-.13s-.12-.13-.12-.13ZM107.41,94.23c.17.1.32.1.45.02.13-.08.28-.12.46-.11-.16-.35-.46-.32-.91.09M107.43,104.9c.17.1.12.27-.15.51-.27.25-.45.24-.52-.02,0-.17.12-.25.34-.24.21.01.33-.07.34-.25M106.92,107.48c-.03.61-.26.81-.68.62.02-.43.24-.64.68-.62M107.11,97.86c-.18.17-.28.29-.28.38v.13c0,.08-.06.17-.15.25v.13s-.01.13-.01.13c.17,0,.26-.03.27-.12h.13s0-.12,0-.12l.02-.39c0-.17.06-.3.15-.39h-.13ZM107.11,97.86c-.18.17-.28.29-.28.38v.13c0,.08-.06.17-.15.25v.13s-.01.13-.01.13c.17,0,.26-.03.27-.12h.13s0-.12,0-.12l.02-.39c0-.17.06-.3.15-.39h-.13ZM105.9,109.78c-.25-.1-.38-.23-.37-.41.17,0,.33-.03.46-.11.13-.08.24-.07.32.01.08.18.05.26-.07.26-.13,0-.24.08-.34.25M105.54,109.24v.13c-.18,0-.27-.05-.26-.14h.26ZM104.61,112.32c.6.12.7.38.29.79-.41.41-.7.62-.88.61.2-.59.3-.85.3-.77,0,.09.09-.13.29-.64M103.76,113.84c.26-.07.46-.06.58.03.13.09.28.14.45.15-.18.17-.36.29-.54.37-.18.08-.36.16-.53.23.18-.25.19-.4.02-.45-.17-.05-.17-.16.01-.32M103.56,115.39c0,.08.13.09.39.02.27-.08.35-.03.25.14.07.35-.07.48-.41.37-.34-.1-.42-.28-.23-.53M106.01,110.17c-.09.17-.26.36-.48.56-.23.21-.43.39-.61.56-.43-.19-.7-.23-.84-.1-.14.12-.29.1-.45-.09.1-.43.24-.53.4-.31.16.23.38.3.64.22.26-.07.44-.26.54-.56.1-.29.36-.39.79-.29M104.18,104.75c.08.18.07.31-.02.39,0,.09-.05.13-.14.12-.09.08-.14.17-.14.25v.13c.07.09.16.14.25.14l.13-.12c.09-.08.16-.21.22-.38.05-.17.12-.34.22-.51l.14-.12-.65-.03v.13ZM103.88,105.65c.08.09.17.14.25.14l.13-.12c.09-.08.16-.21.22-.38.05-.17.12-.34.22-.51l.14-.12-.65-.03v.13c.07.18.07.31-.02.39,0,.09-.05.13-.14.12-.09.08-.14.17-.14.25v.13ZM106.4,107.45c-.26-.01-.34-.1-.25-.27-.44.07-.53.15-.27.25.25.1.33.28.23.53-.69-.03-1.07.06-1.12.27-.06.21-.18.53-.37.96.27-.07.49-.32.68-.75.16.18.38.24.64.16.26-.07.48-.11.66-.1-.1.34-.24.51-.41.5-.17,0-.48-.02-.91-.04v.26c-.37.16-.55.32-.55.5-.18,0-.22-.05-.12-.14.09-.08.05-.13-.12-.14-.18,0-.33.05-.46.17-.14.12-.12.19.05.2-.53.15-.56-.13-.09-.85.46-.72.88-1.19,1.24-1.44-.24-.44-.05-.78.57-1.01.61-.23,1.15-.46,1.59-.71.16.35.1.59-.16.71-.26.12-.32.35-.16.71-.34-.19-.68-.25-1.03-.18.08.09.21.14.39.15.17,0,.17.1-.01.26M103.78,116.18c-.18.08-.3.29-.35.63-.06.35-.21.42-.47.24.18-.25.28-.51.3-.77.01-.26.19-.29.52-.11M103.36,111.35c.26-.07.34.06.24.4-.1.34-.24.43-.4.24-.08-.18-.05-.28.08-.32.13-.04.16-.15.08-.32M103.43,118.12c-.1.25-.26.38-.47.37-.22-.01-.41-.02-.58-.03.09-.17.27-.29.54-.36.26-.07.44-.06.52.02M102.29,120.27c.18-.08.21.18.09.79-.12.6-.35.85-.69.75.02-.43.1-.76.24-.97.14-.21.26-.4.35-.57M101.73,118.29c.26.01.39.13.38.35,0,.22-.19.27-.53.17-.08-.18-.03-.35.15-.52M101.5,114.9c.17.1.34.08.52-.04.18-.12.4-.26.67-.42.09-.17.07-.19-.06-.07-.14.12-.29.1-.45-.08.27-.25.44-.52.49-.82.06-.3.18-.66.37-1.09.17.1.3.1.39.02.09-.08.22-.12.4-.11.07.26.07.39-.02.39-.09,0-.18.17-.29.51-.09,0-.08-.11.02-.32.09-.21.06-.32-.12-.33-.28.33-.42.65-.44.95-.01.3.11.51.36.6-.18.17-.32.27-.41.31-.09.04-.09.15-.02.32-.09.08-.26.12-.52.11.08.18,0,.32-.22.44-.22.12-.16.19.19.2-.36.16-.66.23-.92.22.27-.07.38-.2.34-.37-.04-.17-.14-.31-.31-.41M102.48,116.25c-.27.16-.46.48-.57.95-.11.48-.3.88-.58,1.21-.18,0-.39-.04-.64-.09-.26-.05-.34-.21-.24-.47.43.02.65.08.64.16,0,.09.08,0,.27-.25.09-.17-.08-.27-.51-.29.01-.26.09-.43.22-.51.13-.08.21-.25.22-.51.33.28.53.29.58.03.05-.26.25-.33.6-.23M100.29,118.62c.52-.06.87,0,1.03.18-.09.08-.18.19-.27.31-.1.13-.22.1-.39-.08,0-.09-.06-.15-.19-.21-.13-.05-.19-.11-.19-.2M99.8,120.55c-.07-.27.06-.39.41-.37.34.02.47.15.37.41l-.78-.04ZM98.85,124.28c-.08-.09.31-.12,1.17-.08-.64.67-1.13,1.01-1.48,1.04-.35.03-.24-.29.31-.96M99.24,90.73c-.43-.1-.73-.08-.91.09l.91.04v-.13ZM98,89.5c-.26-.1-.54-.15-.84-.17-.3-.01-.37.07-.21.25,0-.08.17-.03.51.15.34.19.52.11.53-.24M93.97,145.26c-.09,0-.17.03-.26.12,0-.09.02-.13.07-.13.04,0,.07-.04.07-.13l.12.14ZM93.53,146.41c.34.1.5.33.49.67h-.26c0-.1-.07-.32-.23-.67M93.39,143.8c-.18,0-.16-.27.04-.78l.28-.37c.08,0,.1.15.04.46-.06.3-.18.53-.36.7M93.71,145.37c-.1.26-.16.6-.18,1.03-.08-.09-.26-.14-.52-.15.18-.17.3-.31.34-.44.05-.13.17-.27.35-.44M92.85,147.03c.17,0,.34.06.51.15.17.09.26.05.27-.12l-.78-.04ZM99.52,90.22c-.61-.03-1.32-.08-2.14-.17-.82-.08-1.5.09-2.04.49.87-.13,1.61-.19,2.22-.16.61.03,1.26-.03,1.96-.17M92.72,147.02l-.12-.14v.13s.12,0,.12,0ZM92.86,144.03c0,.17-.03.28-.08.32-.05.04-.07.15-.08.32.35-.16.41-.37.16-.64M92.73,146.76c-.15-.53-.22-.92-.2-1.18.15.53.21.92.2,1.18M95.51,89.78c-.18.17-.4.22-.66.16-.26-.05-.48.04-.66.29.18-.08.48-.11.91-.08.43.02.57-.1.41-.37M97.19,92.85c-1.3-.06-2.43.11-3.4.49,1.38.24,2.51.07,3.4-.49M88.83,93.63c-.52-.02-.83.09-.93.35.26.1.57-.02.93-.35M87.56,92.92c-.43-.02-.7.01-.78.09-.09.08-.22.17-.4.24.78.04,1.17-.08,1.18-.34M85.89,95.18c0-.08.09-.13.27-.12.53-.15.92-.22,1.18-.21.52.02.82-.05.92-.21h.26c.17.02.33-.02.46-.1.13-.08.29-.12.46-.11.18-.08.29-.1.33-.05.04.05.14.07.32.08l-.14.12c-.09.08-.22.12-.4.11h-.13s0,.12,0,.12v.13c-.62.15-1.19.25-1.71.31-.52.06-1.22.16-2.09.29h-.13s0-.13,0-.13c.18-.17.31-.25.4-.24M89.44,94.44c-.17,0-.33.03-.46.11-.13.08-.29.12-.46.11h-.26c-.1.16-.4.23-.92.2-.26-.01-.66.06-1.18.21-.18,0-.26.03-.27.12-.09,0-.22.08-.4.24v.13s.12,0,.12,0c.87-.13,1.57-.23,2.09-.29.53-.06,1.09-.16,1.7-.31v-.13s.01-.13.01-.13h.13c.17.01.31-.03.4-.11l.14-.12c-.18,0-.28-.03-.32-.08-.04-.04-.15-.02-.33.05M84.59,95.12v-.13c0,.09-.02.13-.06.13-.05,0-.07.04-.07.13l.13-.12ZM84.6,94.99c0,.09-.03.13-.07.13-.05,0-.07.04-.07.13l.13-.12v-.13ZM84.49,91.86c.08.18.21.19.39.02h.13s0-.12,0-.12c-.17-.18-.29-.23-.38-.15l-.14.12v.13ZM84.49,91.86c.08.18.21.19.39.02h.13s0-.12,0-.12c-.17-.18-.29-.23-.38-.15l-.14.12v.13ZM84.46,95.25c-.1.17-.17.23-.21.18-.04-.04-.06-.02-.07.06l.39.02c.09,0,.13.03.13.07,0,.05.04.07.13.07h.13c.09-.07.18-.13.27-.18.09-.04.18-.14.28-.31v-.13s-.12,0-.12,0c-.09,0-.13.04-.14.12-.53.15-.79.18-.78.09M84.19,95.49l.39.02c.09,0,.13.03.13.07,0,.05.04.07.13.07h.13c.09-.07.18-.13.27-.18.09-.04.18-.14.28-.31v-.13s-.12,0-.12,0c-.09,0-.13.04-.14.12-.53.15-.79.18-.78.09l-.27.24ZM84.43,93.03l-.27.12c.08,0,.17-.03.27-.12M80.49,93.89c-.78-.04-1.17,0-1.18.08.26.1.52.15.77.17.26.01.39-.07.4-.24M60.6,90.88c.02-.43.15-.9.39-1.41.24-.51.46-.98.65-1.4.06.44-.04.89-.32,1.35-.28.47-.52.95-.72,1.46M56,102.9c-.18.08-.25.17-.21.25.04.09,0,.18-.08.26h.13s0-.12,0-.12c0-.08.03-.13.07-.13.04,0,.07-.04.07-.13l.14-.12h-.13ZM56,102.9c-.18.08-.25.17-.21.25.04.09,0,.18-.08.26h.13s0-.12,0-.12c0-.08.03-.13.07-.13.04,0,.07-.04.07-.13l.14-.12h-.13ZM93.98,145c-.09,0-.11.02-.07.06.04.04.02.06-.07.06-.17-.1-.38-.15-.64-.16-.26-.01-.43-.11-.51-.28-.1.26-.16.56-.17.91-.06-.53-.11-1-.13-1.44-.02-.44-.03-.68-.03-.72s.01.17.03.65c.02.47.05,1.37.07,2.67h.13s.13.01.13.01v.13s0-.13,0-.13c.17,0,.33.04.45.09.13.05.32.12.58.22.24.44.05.78-.57,1.01.26.1.34.17.25.21-.09.04-.24.07-.46.11-.22.03-.4.11-.53.24-.14.12-.12.27.05.46.43.1.62.18.57.22-.04.04.15.16.57.35-.7.06-1.07.08-1.11.08-.05,0-.07.08-.07.26-.34-.1-.49-.17-.45-.21.04-.04-.15-.12-.58-.22-.09,0-.24-.01-.45-.02-.22-.01-.28.03-.2.12-.77-.21-1.26-.43-1.47-.65-.2-.22-.35-.43-.43-.61,0-.17-.13-.52-.41-1.06-.28-.53-.43-1.41-.46-2.62-.11-3.13.15-6.52.8-10.18.64-3.65,1.42-7.16,2.31-10.49.89-3.34,1.81-6.31,2.75-8.91.95-2.6,1.61-4.41,2.01-5.44.09-.17.18-.23.27-.18.08.05.22-.01.4-.18.18-.25.17-.36-.05-.33-.22.04-.32-.03-.32-.21.45-2.15,1.16-4.54,2.16-7.18.99-2.64,1.88-4.99,2.67-7.03-.35.16-.66.23-.92.22-1.22.03-2.41.06-3.58.09-1.17.03-2.33.11-3.46.23-.17-.18-.47-.24-.9-.17-.44.07-.88.18-1.32.33.19-.42.46-.61.81-.55.34.06.61,0,.79-.16-.34-.19-.7-.27-1.09-.24-.39.02-.76.07-1.11.14-.01.26.05.35.18.27.13-.08.28-.12.46-.11-1.07.65-2.45.99-4.15,1.04-1.69.05-3.24.22-4.64.5.1-.34.37-.51.8-.49.43.02.78-.05,1.05-.21-.95-.13-2.08-.05-3.39.23-1.32.29-2.45.32-3.39.1-.8.4-1.81.61-3.02.64-1.22.03-2.27.24-3.15.63.52-.06,1.09-.12,1.7-.18.61-.06,1.26-.16,1.97-.3.44-.06.9-.13,1.37-.2.48-.06.9-.22,1.26-.46.17,0,.17.09-.01.26.95-.04,1.78-.11,2.48-.21.7-.1,1.44-.13,2.21-.09-2.01.34-4.17.65-6.48.93-2.31.28-4.3.74-5.98,1.35-.43-.1-.86-.12-1.3-.06-.44.07-.79.22-1.06.47-.53.06-.72.1-.59.1.13,0,.3.01.52.02.22,0,.39.04.52.09.12.05.01.15-.34.31-.45.24-.86.89-1.26,1.96-.4,1.07-.74,1.9-1.03,2.49-.21.69-.51,1.47-.89,2.36-.39.89-.75,1.81-1.1,2.75-.35.94-.72,1.81-1.1,2.61-.38.81-.68,1.46-.87,1.98-.7,1.96-1.43,4.21-2.2,6.73-.77,2.52-1.3,5.04-1.59,7.54-.96.04-1.45.3-1.47.78-.02.48,0,.89.07,1.24-.16-.27-.48-.48-.95-.63-.47-.15-.96-.28-1.48-.4-.51-.11-1.05-.24-1.61-.4-.56-.16-1-.33-1.34-.52-.67-.64-1-1.45-.99-2.45,0-1-.02-1.97-.06-2.93.28-.42.43-.83.45-1.21.02-.39.09-.93.2-1.62.44-.07.59-.02.45.15-.14.17.01.22.45.15.18-.17.28-.36.29-.57.01-.22.07-.5.17-.84,0-.17-.08-.22-.25-.14-.18.08-.22.03-.12-.14-.08-.09.14-.12.66-.1l.75-2.17c-.07-.35-.15-.42-.25-.21-.09.21-.23.23-.39.05.26-.07.44-.28.55-.62.1-.34.21-.75.32-1.22.11-.47.19-.9.25-1.29.06-.39.1-.62.1-.71,0-.17-.02-.19-.06-.07-.05.12-.16.14-.33.05,0-.08.03-.15.08-.19.04-.04.07-.11.07-.19,0,.09.04.13.12.14.08,0,.18-.16.28-.51.1-.34.18-.71.24-1.1.06-.39.1-.75.12-1.1.02-.34.03-.56.03-.65,0-.17.17-.34.48-.5.31-.16.47-.32.48-.5.53-.24.82-.7.85-1.39.03-.69.19-1.33.48-1.93,0-.17-.05-.22-.19-.14-.13.08-.2.16-.21.25-.17-.09-.19-.24-.05-.46.14-.21.21-.4.22-.58.34.02.57-.06.66-.23,0-.17-.06-.24-.19-.21-.13.04-.19-.03-.19-.2,0-.08.05-.15.14-.19.09-.04.09-.15.02-.32.34.02.57-.21.68-.68.11-.47.08-.8-.08-.98-.95.04-1.83.13-2.61.27-.79.14-1.53.19-2.22.16l-.27.24-.14.12c-2.01.34-3.61.7-4.8,1.08-1.19.38-2.29.78-3.31,1.21-1.02.43-2.1.86-3.25,1.28-1.15.43-2.69.85-4.62,1.28-.32-.53-.42-1.23-.29-2.09.13-.86.12-1.6-.03-2.21-.07-.26-.15-.53-.22-.79-.07-.26-.02-.48.16-.64.18-.08.31-.07.39.02.08.09.21.19.37.28,1.5-.62,3.02-1.14,4.56-1.55,1.54-.4,3.18-.83,4.94-1.26,1.15-.38,2.03-.69,2.65-.92.61-.23,1.19-.42,1.72-.57.53-.15,1.08-.3,1.65-.44.57-.15,1.42-.33,2.56-.53.61-.15,1.29-.29,2.04-.43.74-.14,1.55-.27,2.43-.41.87-.13,1.32-.41,1.34-.85.18-.25.19-.34.01-.26-.18.08-.22.04-.12-.14,0-.17.03-.28.08-.32.04-.04.03-.15-.05-.33.16.18.33.27.51.28.37-.59.69-1.35.95-2.3.26-.94.72-1.87,1.36-2.8-.17-.09-.26-.05-.27.12,0,.17-.14.21-.39.11.47-.85.9-1.74,1.29-2.68.39-.94.82-1.87,1.3-2.8.08,0,.15-.01.2-.05.04-.04.15-.06.33-.05-.17-.1-.21-.14-.12-.14.08,0,.13-.08.14-.25.09-.17.03-.23-.19-.2-.22.03-.28-.08-.18-.34.43.11.65-.01.67-.36,0-.17-.03-.2-.12-.07-.09.13-.23.19-.4.18,1.25-2.72,2.6-5.49,4.03-8.34,1.43-2.84,2.74-5.62,3.9-8.34,1.02-1.43,1.83-2.89,2.42-4.38.59-1.49,1.26-2.91,2.02-4.26.49-1.1.99-2.08,1.5-2.92.52-.84.75-1.74.71-2.7.37-.51.74-1.01,1.11-1.51.37-.5.66-1.1.86-1.78.29-.68.65-1.42,1.08-2.23.43-.8.66-1.51.68-2.11.54-.49,1.27-.79,2.19-.88.91-.08,1.84-.04,2.79.13.95.17,1.84.41,2.7.71.85.3,1.49.59,1.91.87-.12.69-.24,1.4-.36,2.13-.12.73-.41,1.3-.86,1.71-.79,2.13-1.65,4.13-2.56,6-.91,1.87-1.92,3.6-3.04,5.19-2.77,5.42-5.45,10.89-8.05,16.41-2.6,5.52-5.21,11.25-7.83,17.2.26.01.61-.01,1.05-.08.44-.06.92-.13,1.44-.19.17,0,.26.1.25.27.61-.06,1-.1,1.18-.14.17-.03.31-.05.39-.05.09,0,.22.01.39.02.17,0,.57-.06,1.18-.21.08,0,.13.05.12.14.88-.39,1.8-.61,2.76-.65.95-.04,2.04-.12,3.26-.24,0,.09.04.13.12.14.71-.31,1.52-.45,2.43-.41.91.04,1.72-.14,2.43-.54.26.01.43.07.51.15.17,0,.33-.03.46-.11.13-.08.33-.11.59-.1l-.79.22c.96-.04,1.87-.17,2.75-.39.88-.22,1.92-.34,3.14-.38l-.02.39c.27-.16.49-.21.66-.16.17.05.43.04.78-.03l.28-.51c1.21-.03,2.47-.04,3.77-.02,1.3.01,2.6-.03,3.91-.15l.91-2.82c0-.08.09-.13.26-.12,1-2.82,2.1-5.64,3.32-8.5,1.22-2.85,2.46-5.76,3.72-8.74l2.47-5.61c.18-.17.21-.38.09-.65-.12-.27-.04-.48.22-.64l.27-.25c.18-.16.27-.29.28-.38.19-.43.34-.85.45-1.28.11-.43.17-.86.19-1.29.81-.75,1.31-1.7,1.5-2.86.18-1.16.65-2.2,1.38-3.12.2-.68.34-1.22.4-1.61.06-.39.18-.79.38-1.22l2.3-4.71c.66-1.18,1.3-2.3,1.91-3.36.61-1.05,1.07-2.09,1.38-3.12.1-.26.11-.47.03-.65-.08-.18-.11-.35-.11-.53.32-1.28.9-2.56,1.74-3.82.84-1.26,1.42-2.53,1.74-3.82-.09.08-.2.15-.33.18-.13.04-.29.14-.47.3.02-.34.1-.67.24-.97.14-.3.3-.57.49-.82.19-.34.37-.59.55-.75.46-.58.98-1.13,1.57-1.62.59-.49,1.11-1.03,1.57-1.62.26.1.51.15.77.17.76.47,1.5.85,2.22,1.14.72.29,1.6.55,2.63.77l.39.02v.13s.87.82.87.82c.06.44.06.94,0,1.5-.07.56-.21,1.27-.42,2.13-.21.68-.37,1.37-.49,2.06-.12.69-.28,1.38-.48,2.06-.31.94-.71,1.72-1.22,2.35-.51.63-.95,1.28-1.33,1.95-.01.26.06.5.23.73.16.23.15.46-.03.72-.3.85-.68,1.64-1.15,2.35-.47.72-.85,1.5-1.15,2.35-.46.67-.82,1.41-1.08,2.23-.26.81-.62,1.64-1.09,2.49-.29.68-.63,1.32-1,1.9-.37.59-.8,1.31-1.27,2.15-1.83,3.99-3.43,7.6-4.8,10.84-1.37,3.23-2.91,6.55-4.63,9.93.25.27.28.47.1.59-.18.12-.19.27-.02.45-.01.26-.19.38-.54.37-.04.78-.32,1.41-.87,1.91-.02.35.04.57.17.66.12.09.18.36.16.79-.18.08-.29.21-.34.38-.05.17-.16.25-.34.25.07.26.02.59-.18.97-.19.38-.41.76-.64,1.14-.24.38-.4.74-.51,1.08-.1.34-.08.69.08,1.04-.27.25-.52.5-.75.75-.23.25-.52.46-.88.61.17,0,.34.04.52.09.17.05.34.08.51.09l-1.27,2.15c.43.02.91.02,1.43,0,.52-.02,1-.02,1.43,0,0-.08-.21-.14-.64-.16.44-.06,1.05-.12,1.83-.17.78-.05,1.58-.06,2.41-.02.82.04,1.64.1,2.47.18.82.08,1.49.22,2,.42-.18.17-.32.31-.41.44-.09.13-.06.28.11.46.42.19.72.44.88.75.16.31.4.65.74,1.01-.6-.2-1.36-.24-2.28-.11-.92.13-1.63.18-2.15.16.51.2,1.03.25,1.55.14.53-.11,1.09-.06,1.69.14-.72.58-1.53.82-2.44.73-.91-.08-1.8-.02-2.68.2.1-.26.06-.39-.11-.39-.17,0-.39.02-.65.1-.27.08-.55.15-.86.22-.31.07-.59.06-.84-.04.24.27.24.34,0,.19-.25-.14-.47-.22-.64-.22-.78.05-1.66.18-2.62.4-.97.21-1.84.48-2.64.79-.35-.02-.56-.07-.65-.16l-.91-.04c0,.09-.1.21-.28.38.09-.08.26-.07.52.02-.18.17-.29.27-.34.31-.05.04.06.16.31.34.18-.08.33-.14.46-.18.13-.04.16-.19.09-.45.18-.16.31-.18.39-.05.08.13.21.2.38.21-.38.59-.62,1.19-.74,1.79-.17,0-.35.16-.54.5-.19.34-.45.46-.8.35.55-.75.72-1.44.48-2.06-.17-.1-.36-.08-.59.04-.22.12-.41.13-.58.04.42.2.59.36.5.48-.09.13.02.41.35.86-.36.33-.74.51-1.13.53-.39.03-.64.21-.74.55.09-.08.18-.12.26-.12l.51.28c.17,0,.33-.03.46-.11.13-.08.29-.2.47-.37-.01.26-.13.52-.36.76-.23.25-.4.59-.5,1.02.26.01.4-.2.42-.63.59.37.64.72.15,1.05-.49.32-.95.47-1.39.45,0,.18.1.24.32.21.22-.03.37-.05.46-.05-.1.26-.24.36-.41.31-.17-.05-.35,0-.53.17.06.44-.11.95-.53,1.53-.42.59-.73,1.23-.94,1.91.17.1.39.04.66-.16s.37-.53.31-.96c.18-.08.31-.09.39-.05.08.05.3.08.64.09.18-.16.3-.44.36-.83.06-.39.15-.75.24-1.1-.01.26.15.44.5.55-.18.16-.34.36-.48.56-.14.21-.13.41.04.58-.28.42-.43.87-.45,1.35-.02.47-.39.83-1.09,1.05.56-.84.85-1.48.87-1.91-.35.07-.58.26-.68.55-.1.3-.2.58-.3.83-.43-.02-.92.13-1.45.45,0,.17.05.31.18.4.12.09.18.27.17.53.43.11.65.03.66-.23.01-.26.1-.3.27-.12-.2.43-.56.69-1.08.8-.52.11-.96.15-1.31.13-.18.17-.12.23.19.21.3-.03.41.04.32.21-.35-.02-.57.02-.65.1-.09.08-.22.03-.39-.15-.1.17-.19.32-.28.44-.09.13-.19.4-.3.83.26.1.46,0,.6-.3.14-.29.3-.4.47-.3-.02.43-.08.71-.17.84-.09.13-.24.36-.42.7-.26-.01-.26-.1.01-.26s.32-.33.15-.52c-.17-.09-.28-.1-.32-.01-.05.09-.16.12-.33.11-.18.25-.24.43-.15.52.08.09.04.13-.14.12,0,.17.2.27.64.29-.19.43-.42.72-.69.88-.27.16-.46.54-.58,1.14.17,0,.34.1.51.28-.18.08-.38.22-.61.43-.23.2-.36.66-.39,1.35,0,.17.07.26.24.27.17,0,.26.1.25.27-.82.75-1.31,1.5-1.47,2.27-.17.77-.58,1.66-1.23,2.67.08.09.17.12.25.08.09-.04.17-.01.26.07-.38.68-.8,1.8-1.26,3.39-.47,1.58-.93,3.25-1.41,5.01-.47,1.75-.9,3.4-1.27,4.95-.38,1.54-.66,2.57-.86,3.08-.1.25-.06.45.1.59.17.14.29.3.37.47-.34-.1-.52-.07-.53.11,0,.17.16.22.52.15-.79.22-1.23.72-1.31,1.5-.08.78-.35,1.5-.82,2.17.16.18.22.44.16.79-.06.34-.05.65.02.91.1-.34.3-.83.59-1.47.29-.64.4-1.09.32-1.35.08.09.12.31.1.66-.02.34-.06.69-.12,1.04-.06.34-.16.66-.3.96-.15.3-.35.44-.61.43l.12.14c-.09,0-.13.04-.14.12v.26s-.15.12-.15.12c0,.08-.03.13-.07.12-.04,0-.07.04-.07.13-.18.16-.3.31-.35.44-.05.13-.12.28-.22.44l1.12,1.09Z"/>
</svg>