<?xml version="1.0" encoding="UTF-8"?>
<svg id="Layer_1" xmlns="http://www.w3.org/2000/svg" version="1.1" viewBox="0 0 200 200">
  <!-- Generator: Adobe Illustrator 30.0.0, SVG Export Plug-In . SVG Version: 2.1.1 Build 123)  -->
  <defs>
    <style>
      .st0 {
        fill-rule: evenodd;
      }

      .st0, .st1 {
        fill: #fff;
      }
    </style>
  </defs>
  <path class="st1" d="M27.85,109.85c0,1.6-1.06,2.99-2.62,3.45l-13.74,3.98c-.8.22-1.59-.36-1.59-1.17v-7.72s13.21,1.68,13.21,1.68h0c.63.08,1.19-.4,1.19-1.03v-20.77c0-.62-.56-1.11-1.19-1.03l-13.22,1.69v-7.7c0-.82.79-1.4,1.59-1.17l13.74,3.97c1.55.45,2.62,1.85,2.62,3.44v22.4s0,0,0,0Z"/>
  <path class="st1" d="M9.9,108.38l-9.19-1.17c-.53-.07-.92-.5-.92-1.03v-15.07c0-.52.39-.96.92-1.03l9.19-1.17v19.47Z"/>
  <path class="st0" d="M199.79,113.07v-11.61c0-8.49-5.74-9.71-8.65-9.71-5.57,0-7.39,4.9-7.39,4.9v-4.66h-3.95v21.09h4.53v-10.62c0-3.55,1.58-6.87,5.75-6.87,2.54,0,5.12,1.23,5.12,6.13v11.36h4.58Z"/>
  <path class="st0" d="M176.66,91.98h-3.95v4.21s-1.59-4.45-7.56-4.45c-1.93,0-3.66.44-5.2,1.34-1.54.89-2.75,2.15-3.63,3.77-.88,1.62-1.32,3.4-1.32,5.59s.44,4.1,1.3,5.7c.86,1.6,2.07,2.84,3.61,3.71,1.54.86,3.28,1.3,5.25,1.3,3.1,0,5.44-1.15,7.01-3.45v2.34c0,3.92-2.06,5.88-6.17,5.88-1.59,0-2.89-.32-3.91-.96-1.01-.64-1.65-1.56-1.93-2.73h-4.62c.19,2.33,1.2,4.14,3.02,5.41,1.82,1.28,4.19,1.92,7.1,1.92,3.75,0,6.52-.82,8.31-2.45,1.79-1.63,2.69-3.93,2.69-6.9v-20.21h0,0ZM170.45,107.49c-1.15,1.28-2.66,1.92-4.54,1.92s-3.39-.64-4.53-1.93c-1.15-1.29-1.72-2.96-1.72-5.02s.58-3.74,1.72-5.02c1.15-1.29,2.66-1.93,4.53-1.93s3.39.65,4.54,1.95c1.15,1.31,1.72,3.05,1.72,5.09s-.58,3.69-1.72,4.96Z"/>
  <rect class="st1" x="147.65" y="92" width="4.53" height="21.07"/>
  <path class="st0" d="M149.92,89.37c1.76,0,2.77-1.32,2.77-2.68,0-1.2-.86-2.68-2.77-2.68-1.74,0-2.77,1.31-2.77,2.68,0,1.2.85,2.68,2.77,2.68Z"/>
  <path class="st0" d="M129.93,106.11c.19,2.57,2.77,3.75,5.33,3.75,2.81,0,4.62-1.11,4.62-2.8,0-2.25-2.84-2.57-4.78-2.8h0c-.14-.02-.28-.03-.42-.05-.14-.02-.3-.03-.48-.05-2.41-.26-8.21-.86-8.21-5.87,0-5.85,6.77-6.59,8.6-6.59,5.29,0,9.07,2.34,9.36,6.75h-4.41c-.23-1.97-2.17-3.3-4.74-3.3s-4.41,1.08-4.41,2.75,1.07,1.87,2.11,2.08h.03c.62.13,1.61.28,2.98.44,8.82,1.06,8.82,4.35,8.82,6.21v.09c0,5.76-6.78,6.59-9.03,6.59-2.88,0-5.21-.64-6.99-1.92-1.78-1.28-2.7-3.04-2.75-5.29h4.37s0,0,0,0Z"/>
  <polygon class="st0" points="122.71 91.99 118.18 91.99 118.18 113.07 122.71 113.07 122.71 92 122.71 91.99"/>
  <path class="st0" d="M123.22,86.69c0-.77-.27-1.41-.8-1.92-.54-.51-1.19-.76-1.97-.76s-1.45.26-1.97.76c-.53.51-.8,1.15-.8,1.92s.27,1.41.8,1.92c.53.51,1.19.76,1.97.76s1.44-.26,1.97-.76c.53-.51.8-1.15.8-1.92Z"/>
  <path class="st0" d="M105.42,87.02h4.53v4.98h5.2v3.91h-5.2v10.99c0,1.97.97,2.26,2.22,2.26h3.44v3.91h-4.36c-4.97,0-5.84-2.84-5.84-5.72v-20.33h0,0Z"/>
  <path class="st0" d="M103.4,96.15v-4.16h-1.01c-6.3,0-6.84,4.75-6.84,4.75v-4.75h-4.03v21.08h4.53v-11.49c0-4.52,2.23-5.43,5.33-5.43h2.02,0Z"/>
  <path class="st0" d="M89,103.48c.08-.57.12-1.14.12-1.69,0-5.87-4.14-10.04-10.62-10.04-7.13,0-10.46,5.49-10.46,10.82,0,9.92,8.81,10.75,11.08,10.75,5.57,0,8.9-3.41,9.61-7.33h-4.54c-.56,2.17-2.23,3.7-5.41,3.7s-5.76-1.92-6-5.97v-.25h16.2ZM78.68,95.33c3.54,0,5.48,2.14,5.83,4.89h-11.54c.38-3.33,3.13-4.89,5.71-4.89Z"/>
  <path class="st0" d="M66.45,94.04c-.38-2.4-2.54-10.04-12.47-10.04h0c-4.74,0-14.19,2.31-14.19,14.65,0,13.21,10.59,14.65,14.19,14.65,8.99,0,11.86-6.31,12.42-10.04h-4.82c-.74,2.82-2.94,5.88-7.81,5.89-5.57,0-9.03-4.34-9.03-10.49,0-2.53.94-10.49,9.02-10.5,4,0,6.89,2.16,7.85,5.88h4.83Z"/>
</svg>