<?xml version="1.0" encoding="UTF-8"?>
<svg id="Layer_1" xmlns="http://www.w3.org/2000/svg" version="1.1" viewBox="0 0 216 256">
  <!-- Generator: Adobe Illustrator 30.0.0, SVG Export Plug-In . SVG Version: 2.1.1 Build 123)  -->
  <defs>
    <style>
      .st0 {
        fill: #fff;
      }
    </style>
  </defs>
  <g>
    <path class="st0" d="M8.83,209.78v-14.42h2.27v12.41h7.74v2.01h-10.01Z"/>
    <path class="st0" d="M21.91,209.78v-14.42h2.27v14.42h-2.27Z"/>
    <path class="st0" d="M30.93,199.63v10.15h-2.27v-14.42h1.79l8.24,10.4v-10.38h2.3v14.4h-1.89l-8.16-10.15h-.01Z"/>
    <path class="st0" d="M44.53,202.47c0-.87.16-1.73.47-2.59s.77-1.63,1.37-2.32c.6-.68,1.34-1.24,2.2-1.66.87-.42,1.85-.63,2.94-.63,1.31,0,2.44.29,3.37.87s1.64,1.34,2.11,2.27l-1.79,1.2c-.2-.43-.45-.8-.73-1.1-.28-.3-.6-.54-.93-.71-.34-.18-.69-.3-1.06-.38-.37-.07-.72-.11-1.06-.11-.76,0-1.42.15-1.99.46-.57.3-1.05.71-1.43,1.21-.39.5-.68,1.06-.87,1.69-.2.62-.29,1.25-.29,1.87,0,.7.11,1.37.34,2.01s.55,1.2.96,1.68c.41.49.9.88,1.47,1.17s1.19.44,1.87.44c.35,0,.71-.04,1.09-.13.37-.09.73-.23,1.08-.43s.66-.44.95-.74c.29-.3.53-.66.72-1.08l1.89,1.08c-.23.54-.56,1.02-.97,1.43-.42.41-.89.76-1.42,1.05-.53.28-1.09.5-1.68.65-.59.15-1.17.22-1.74.22-1.02,0-1.94-.22-2.78-.65s-1.56-1-2.17-1.7-1.08-1.49-1.42-2.38-.51-1.79-.51-2.71v.02Z"/>
    <path class="st0" d="M66.41,209.88c-1.03,0-1.97-.21-2.81-.62-.85-.41-1.57-.96-2.18-1.65-.61-.68-1.08-1.47-1.41-2.35s-.5-1.78-.5-2.7.18-1.88.53-2.76c.35-.88.84-1.66,1.45-2.34.62-.68,1.35-1.22,2.19-1.61.85-.4,1.77-.6,2.77-.6s1.97.21,2.81.64,1.57.98,2.17,1.67,1.07,1.47,1.4,2.35.5,1.76.5,2.67c0,.96-.17,1.88-.52,2.76-.34.88-.83,1.66-1.45,2.33-.62.67-1.36,1.2-2.2,1.6-.85.4-1.76.6-2.75.6h0ZM61.82,202.57c0,.68.11,1.33.32,1.97s.52,1.2.92,1.69.88.88,1.45,1.17,1.2.44,1.91.44,1.38-.15,1.94-.46c.56-.3,1.04-.71,1.43-1.21s.69-1.06.89-1.68.3-1.26.3-1.91c0-.69-.11-1.35-.32-1.98-.22-.63-.52-1.18-.92-1.66-.4-.48-.88-.87-1.44-1.16-.56-.29-1.19-.44-1.88-.44-.73,0-1.38.15-1.95.46-.57.3-1.05.7-1.44,1.19s-.69,1.05-.9,1.67-.31,1.27-.31,1.92h0Z"/>
    <path class="st0" d="M76.88,209.78v-14.42h2.27v12.41h7.74v2.01s-10.01,0-10.01,0Z"/>
    <path class="st0" d="M92.24,199.63v10.15h-2.27v-14.42h1.79l8.24,10.4v-10.38h2.3v14.4h-1.89l-8.16-10.15h-.01Z"/>
    <path class="st0" d="M124.81,195.36v14.42h-2.29v-6.36h-7.27v6.36h-2.27v-14.42h2.27v6.03h7.27v-6.03h2.29Z"/>
    <path class="st0" d="M135.25,209.88c-1.03,0-1.97-.21-2.81-.62-.85-.41-1.57-.96-2.18-1.65-.61-.68-1.08-1.47-1.41-2.35s-.5-1.78-.5-2.7.18-1.88.53-2.76c.35-.88.84-1.66,1.45-2.34s1.35-1.22,2.19-1.61c.85-.4,1.77-.6,2.77-.6s1.97.21,2.81.64c.85.43,1.57.98,2.17,1.67.6.69,1.07,1.47,1.4,2.35s.5,1.76.5,2.67c0,.96-.17,1.88-.52,2.76-.35.88-.83,1.66-1.45,2.33s-1.36,1.2-2.2,1.6c-.85.4-1.76.6-2.75.6h0ZM130.66,202.57c0,.68.11,1.33.32,1.97s.52,1.2.92,1.69.88.88,1.45,1.17c.57.29,1.2.44,1.91.44s1.38-.15,1.94-.46c.56-.3,1.04-.71,1.43-1.21s.69-1.06.89-1.68.3-1.26.3-1.91c0-.69-.11-1.35-.32-1.98-.22-.63-.52-1.18-.92-1.66s-.88-.87-1.44-1.16c-.56-.29-1.19-.44-1.88-.44-.73,0-1.38.15-1.95.46-.57.3-1.05.7-1.44,1.19s-.69,1.05-.9,1.67c-.21.63-.31,1.27-.31,1.92h0Z"/>
    <path class="st0" d="M154.28,198.75c-.13-.15-.33-.31-.59-.48s-.56-.33-.9-.48-.72-.27-1.14-.37c-.41-.09-.84-.14-1.27-.14-.96,0-1.67.18-2.12.53s-.68.84-.68,1.46c0,.35.07.64.21.86s.36.42.66.59.67.32,1.12.45c.45.13.97.27,1.56.42.73.18,1.39.37,1.98.59s1.09.48,1.49.79c.41.31.72.69.94,1.15.22.45.34,1,.34,1.66,0,.73-.14,1.36-.42,1.89s-.66.96-1.14,1.29c-.48.33-1.04.58-1.68.73s-1.32.23-2.05.23c-1.1,0-2.16-.17-3.18-.5-1.02-.33-1.95-.82-2.77-1.45l1.04-1.95c.18.18.43.37.76.59s.72.42,1.16.6c.44.18.92.34,1.43.47s1.05.19,1.6.19c.89,0,1.58-.16,2.07-.47s.73-.77.73-1.38c0-.37-.09-.67-.27-.91-.18-.24-.44-.46-.78-.64s-.75-.35-1.24-.5-1.04-.3-1.66-.47c-.72-.19-1.34-.39-1.88-.6-.54-.21-.98-.46-1.33-.76-.35-.3-.62-.65-.8-1.05s-.27-.88-.27-1.45c0-.7.13-1.33.41-1.88s.64-1.01,1.11-1.38c.47-.37,1.02-.65,1.66-.84s1.33-.28,2.07-.28c.97,0,1.87.16,2.7.47s1.55.7,2.17,1.16l-1.04,1.87h0Z"/>
    <path class="st0" d="M171.19,195.36v14.42h-2.29v-6.36h-7.27v6.36h-2.27v-14.42h2.27v6.03h7.27v-6.03h2.29Z"/>
    <path class="st0" d="M175.66,209.78v-14.42h2.27v14.42h-2.27Z"/>
    <path class="st0" d="M184.68,199.63v10.15h-2.27v-14.42h1.79l8.24,10.4v-10.38h2.3v14.4h-1.89l-8.16-10.15h0Z"/>
    <path class="st0" d="M205.19,209.88c-1.03,0-1.97-.21-2.81-.62-.85-.41-1.57-.96-2.18-1.65-.61-.68-1.08-1.47-1.41-2.35s-.5-1.78-.5-2.7.18-1.88.53-2.76c.35-.88.84-1.66,1.45-2.34s1.35-1.22,2.19-1.61c.85-.4,1.77-.6,2.77-.6s1.97.21,2.81.64c.85.43,1.57.98,2.17,1.67.6.69,1.07,1.47,1.4,2.35s.5,1.76.5,2.67c0,.96-.17,1.88-.52,2.76-.35.88-.83,1.66-1.45,2.33s-1.36,1.2-2.2,1.6c-.85.4-1.76.6-2.75.6h0ZM200.6,202.57c0,.68.11,1.33.32,1.97s.52,1.2.92,1.69.88.88,1.45,1.17c.57.29,1.2.44,1.91.44s1.38-.15,1.94-.46c.56-.3,1.04-.71,1.43-1.21s.69-1.06.89-1.68.3-1.26.3-1.91c0-.69-.11-1.35-.32-1.98-.22-.63-.52-1.18-.92-1.66s-.88-.87-1.44-1.16c-.56-.29-1.19-.44-1.88-.44-.73,0-1.38.15-1.95.46-.57.3-1.05.7-1.44,1.19s-.69,1.05-.9,1.67c-.21.63-.31,1.27-.31,1.92h0Z"/>
  </g>
  <g>
    <path class="st0" d="M51.85,220.93h1.13l5.63,13.56h-1.41l-1.76-4.24h-6.09l-1.74,4.24h-1.43s5.67-13.56,5.67-13.56ZM55.14,229.2l-2.73-6.7-2.77,6.7h5.5Z"/>
    <path class="st0" d="M61.69,234.49v-13.56h4.6c1.08,0,2.03.18,2.84.54s1.48.84,2.02,1.45c.54.61.95,1.33,1.22,2.15.27.82.41,1.7.41,2.63,0,1.03-.15,1.96-.46,2.8s-.74,1.55-1.31,2.14c-.57.59-1.25,1.05-2.04,1.37-.8.32-1.69.49-2.68.49h-4.6ZM71.44,227.69c0-.81-.11-1.56-.34-2.24-.23-.68-.56-1.27-1-1.77s-.98-.88-1.61-1.15c-.64-.27-1.37-.41-2.2-.41h-3.26v11.19h3.26c.84,0,1.58-.14,2.22-.43s1.18-.68,1.61-1.18.76-1.09.98-1.78.33-1.42.33-2.22h0Z"/>
    <path class="st0" d="M75.95,220.93l4.85,11.9,4.83-11.9h1.39l-5.65,13.56h-1.16l-5.65-13.56h1.39Z"/>
    <path class="st0" d="M95.08,234.59c-.94,0-1.8-.19-2.59-.58-.78-.39-1.45-.9-2.01-1.55s-.99-1.38-1.3-2.21c-.31-.83-.46-1.67-.46-2.54s.16-1.77.49-2.6c.32-.83.77-1.56,1.35-2.2.57-.64,1.25-1.14,2.02-1.52s1.62-.56,2.52-.56,1.8.2,2.59.6c.78.4,1.45.93,2,1.58s.98,1.38,1.29,2.2c.31.82.46,1.66.46,2.51,0,.9-.16,1.77-.49,2.6-.32.83-.77,1.56-1.34,2.19-.57.63-1.24,1.13-2.01,1.51-.78.38-1.62.56-2.52.56h0ZM90.06,227.71c0,.74.12,1.45.36,2.13s.59,1.29,1.03,1.81c.45.53.97.95,1.58,1.26s1.29.47,2.04.47,1.46-.16,2.08-.5c.62-.33,1.15-.76,1.58-1.3.43-.53.77-1.14,1-1.81.24-.67.35-1.36.35-2.06,0-.74-.12-1.45-.37-2.13s-.6-1.28-1.04-1.8c-.45-.52-.97-.94-1.58-1.25s-1.29-.47-2.02-.47-1.46.16-2.08.49-1.15.75-1.58,1.29-.77,1.14-1,1.81c-.24.67-.35,1.36-.35,2.06h0Z"/>
    <path class="st0" d="M114.9,232.51c-1.26,1.39-2.71,2.08-4.35,2.08-.92,0-1.76-.2-2.53-.59-.77-.39-1.44-.92-2-1.57s-1.01-1.38-1.33-2.21c-.32-.82-.48-1.66-.48-2.53s.16-1.77.47-2.6c.31-.83.75-1.56,1.31-2.19s1.22-1.13,1.99-1.51,1.6-.56,2.5-.56c.66,0,1.27.07,1.81.22.55.15,1.04.35,1.46.61.43.26.8.57,1.11.94.31.36.58.76.79,1.19l-1.03.69c-.45-.84-1.02-1.46-1.74-1.85-.71-.39-1.52-.59-2.42-.59-.75,0-1.43.16-2.03.48s-1.12.74-1.55,1.27c-.43.53-.75,1.13-.98,1.81s-.34,1.38-.34,2.11.13,1.49.39,2.18.62,1.29,1.08,1.8c.46.52,1,.93,1.61,1.23.62.3,1.29.46,2.01.46.78,0,1.52-.18,2.22-.54s1.38-.94,2.03-1.73v-2.25h-3.02v-1.03h4.14v6.66h-1.13v-1.99h.01Z"/>
    <path class="st0" d="M124.12,220.93h1.13l5.63,13.56h-1.41l-1.76-4.24h-6.09l-1.74,4.24h-1.43l5.67-13.56h0ZM127.4,229.2l-2.73-6.7-2.77,6.7h5.5Z"/>
    <path class="st0" d="M133.97,234.49v-13.56h4.6c1.08,0,2.03.18,2.84.54s1.48.84,2.02,1.45c.54.61.95,1.33,1.22,2.15.27.82.41,1.7.41,2.63,0,1.03-.15,1.96-.46,2.8s-.74,1.55-1.31,2.14c-.57.59-1.25,1.05-2.04,1.37s-1.69.49-2.68.49h-4.6ZM143.73,227.69c0-.81-.12-1.56-.34-2.24-.23-.68-.56-1.27-1-1.77s-.98-.88-1.61-1.15c-.64-.27-1.37-.41-2.2-.41h-3.27v11.19h3.27c.84,0,1.58-.14,2.22-.43s1.18-.68,1.61-1.18c.43-.5.76-1.09.98-1.78.22-.68.34-1.42.34-2.22h0Z"/>
    <path class="st0" d="M154.23,234.59c-.94,0-1.8-.19-2.59-.58-.78-.39-1.45-.9-2.01-1.55-.56-.64-.99-1.38-1.3-2.21s-.46-1.67-.46-2.54.16-1.77.49-2.6c.32-.83.77-1.56,1.35-2.2s1.25-1.14,2.02-1.52,1.62-.56,2.52-.56,1.8.2,2.59.6c.78.4,1.45.93,2,1.58s.98,1.38,1.29,2.2c.31.82.46,1.66.46,2.51,0,.9-.16,1.77-.49,2.6-.32.83-.77,1.56-1.34,2.19-.57.63-1.24,1.13-2.01,1.51-.78.38-1.62.56-2.52.56h0ZM149.21,227.71c0,.74.12,1.45.36,2.13s.59,1.29,1.03,1.81.97.95,1.59,1.26c.61.31,1.29.47,2.04.47s1.46-.16,2.08-.5c.62-.33,1.15-.76,1.58-1.3s.77-1.14,1-1.81c.24-.67.35-1.36.35-2.06,0-.74-.12-1.45-.37-2.13s-.6-1.28-1.04-1.8-.97-.94-1.58-1.25-1.29-.47-2.02-.47-1.46.16-2.08.49c-.62.32-1.15.75-1.58,1.29-.43.54-.77,1.14-1,1.81-.24.67-.35,1.36-.35,2.06h0Z"/>
    <path class="st0" d="M172.18,223.47c-.38-.43-.89-.78-1.53-1.05s-1.36-.4-2.18-.4c-1.2,0-2.07.23-2.62.68s-.82,1.07-.82,1.84c0,.41.07.74.22,1,.15.26.37.49.68.68s.7.36,1.18.5,1.04.28,1.69.42c.73.15,1.38.32,1.96.52s1.07.43,1.48.72c.41.29.72.63.93,1.04.22.41.32.92.32,1.53s-.12,1.16-.36,1.62-.58.84-1.01,1.15-.95.53-1.55.68-1.25.22-1.97.22c-2.1,0-3.91-.65-5.44-1.97l.67-1.09c.24.25.53.5.87.73s.71.43,1.13.6.86.31,1.33.4.97.14,1.49.14c1.08,0,1.93-.19,2.53-.58s.91-.98.91-1.77c0-.42-.09-.77-.26-1.06s-.43-.54-.77-.74c-.34-.21-.77-.39-1.28-.54s-1.1-.31-1.78-.46c-.71-.17-1.34-.34-1.87-.52s-.99-.4-1.36-.67c-.37-.27-.65-.59-.83-.96-.19-.38-.28-.84-.28-1.38,0-.62.12-1.18.35-1.67.24-.49.57-.9,1-1.22s.94-.57,1.53-.74,1.24-.26,1.95-.26c.9,0,1.71.14,2.42.41.71.27,1.35.66,1.92,1.15l-.65,1.07v-.02Z"/>
  </g>
  <path class="st0" d="M122.91,117.17c-.1.51.05.81.45.92.4.1.86.25,1.37.45-.4-.51-1.01-.96-1.82-1.37M105.43,119.3l.31.15h.15l.31-.15c0-.1-.1-.15-.31-.15,0-.1-.05-.15-.15-.15-.2,0-.35.05-.45.15s-.05.2.15.3v-.15h0ZM105.43,119.3l.31.15h.15l.31-.15c0-.1-.1-.15-.31-.15,0-.1-.05-.15-.15-.15-.2,0-.35.05-.45.15s-.05.2.15.3v-.15h0ZM104.37,119.6h.15l.31-.15h-.46c-.2,0-.35.05-.45.15h.45ZM104.37,119.6h.15l.31-.15h-.46c-.2,0-.35.05-.45.15h.45ZM97.53,120.66h-.31v.15h.45c.2,0,.35-.05.46-.15h-.61,0ZM97.53,120.66h-.31v.15h.45c.2,0,.35-.05.46-.15h-.61,0ZM98.14,120.97h-.46c-.2,0-.4.1-.61.31h-.15c-.2,0-.35.15-.46.45l1.67-.76h.01ZM96.16,121.57c.2,0,.3-.05.3-.15h.15l.15-.15v-.15c0,.1-.05.15-.15.15h-.68c-.25,0-.48.05-.68.15-.31,0-.51.05-.61.15h-.15.15-.3v.15-.15h-.91l-.76.31c-.1,0-.36.1-.76.31h-.15c-.21.1-.38.2-.53.3s-.33.15-.53.15c-.1,0-.21.02-.31.07s-.21.07-.31.07h-1.22c-.3,0-.51.05-.61.15h-.15c-.3,0-.56.1-.76.3l-.46.31.46-.15,1.82-.3h.15c.1-.1.25-.15.45-.15h.92v-.15h.91c.51-.2.96-.38,1.37-.53.4-.15.86-.33,1.36-.53h.46c.51,0,.91-.05,1.22-.15h.16ZM97.68,120.97c-.2,0-.4.1-.61.31h-.15c-.2,0-.31.05-.31.15l.15-.15v-.15l.15-.15-.31.31h-.68c-.25,0-.48.05-.68.15-.31,0-.51.05-.61.15h-1.22l-.76.31c-.1,0-.36.1-.76.31h-.15c-.21.1-.38.2-.53.3s-.33.15-.53.15c-.1,0-.21.02-.31.07s-.21.07-.31.07h-1.22c-.3,0-.51.05-.61.15h-.15c-.3,0-.56.1-.76.3l-.61.31h.15-.15l.61-.15,1.82-.3h.15c.1-.1.25-.15.45-.15h.92v-.15h.91c.51-.2.99-.38,1.44-.53.46-.15.89-.33,1.29-.53h.46c.51,0,.91-.05,1.22-.15h.15c.2,0,.3-.05.3-.15v.3c.71,0,1.42-.07,2.13-.23.71-.15,1.27-.3,1.67-.46.4-.15.48-.23.23-.23s-1.04.05-2.35.15h-.46.03ZM82.03,124.77h.61l.31-.31h1.21c.1,0,.15.02.15.07s.05.08.15.08l.61-.46c.3,0,.55-.05.76-.15l.15-.15h-2.13c-.1,0-.21.05-.31.15,0,.1-.02.15-.07.15s-.08.05-.08.15l-.3.15h-.15c-.21-.1-.31-.25-.31-.46l-.3.3c-.1.1-.2.15-.31.15h-.15v.31h.15v.02ZM82.03,124.77h.61l.31-.31h1.21c.1,0,.15.02.15.07s.05.08.15.08l.61-.46c.3,0,.55-.05.76-.15l.15-.15h-2.13c-.1,0-.21.05-.31.15,0,.1-.02.15-.07.15s-.08.05-.08.15l-.3.15h-.15c-.21-.1-.31-.25-.31-.46l-.3.3c-.1.1-.2.15-.31.15h-.15v.31h.15v.02ZM80.51,124.77h-.15c-.1,0-.15.05-.15.15v.15h.15c.1,0,.18.02.23.08.05.05.13.07.23.07h.15v-.45h-.46ZM80.51,124.77h-.15c-.1,0-.15.05-.15.15v.15h.15c.1,0,.18.02.23.08.05.05.13.07.23.07h.15v-.45h-.46ZM77.77,126.74c-.2.1-.56.15-1.06.15.2-.21.56-.25,1.06-.15M73.22,73.56c0,.1-.05.15-.15.15.1,0,.15-.05.15-.15M70.78,129.02h-.45l.15-.3h.15c.1.1.15.2.15.3M70.18,77.36h.31l.15-.15v-.15h-.31c-.1,0-.15.05-.15.15v.15ZM70.33,77.05c-.1,0-.15.05-.15.15v.15h.31l.15-.15v-.15h-.31ZM66.23,87.54l.3-.15v-.31h-.3v.15c-.1.1-.21.15-.3.15l-.15.15h.46,0ZM66.23,87.23c-.1.1-.21.15-.3.15l-.15.15h.46l.3-.15v-.31h-.3v.15h0ZM65.62,88.14h-.46l-.3.46-.31.31v.15h.61l.15-.15.46-.61v-.15h-.15ZM65.62,88.14h-.46l-.3.46-.31.31v.15h.61l.15-.15.46-.61v-.15h-.15ZM63.34,96.5c.1.2.1.56,0,1.06-.1.51-.31.66-.61.46.1-.2.17-.46.23-.76.05-.3.18-.56.38-.76M62.89,74.32v-.15c0-.1.02-.18.07-.23s.07-.13.07-.23v-.15l.15-.3v-.15c-.4.1-.61.35-.61.76v.46c0,.1.05.15.15.15h.15v-.15h.02ZM62.89,74.32v-.15c0-.1.02-.18.07-.23s.07-.13.07-.23v-.15l.15-.3v-.15c-.4.1-.61.35-.61.76v.46c0,.1.05.15.15.15h.15v-.15h.02ZM61.06,96.2l.91-.3c.2-.2.31-.35.31-.45l.15-.15v-.91l-.76.45v.15c-.1.21-.18.38-.23.53s-.18.33-.38.53v.15ZM61.67,94.83v.15c-.1.21-.18.38-.23.53s-.18.33-.38.53v.15h-.15l1.06-.3c.2-.2.31-.35.31-.45l.15-.15v-.91s-.76.45-.76.45ZM60.45,78.73c.2,0,.35-.05.45-.15s.15-.2.15-.31v-.45l-.15-.15c0,.1-.05.2-.15.3l-.15.15c0,.1-.03.18-.08.23s-.07.13-.07.23v.15h0ZM60.45,78.73c.2,0,.35-.05.45-.15s.15-.2.15-.31v-.45l-.15-.15c0,.1-.05.2-.15.3l-.15.15c0,.1-.03.18-.08.23s-.07.13-.07.23v.15h0ZM60.3,79.33l.15-.15.15-.15v-.15h-.3v.15c-.21,0-.31.05-.31.15v.15h.31ZM60.3,79.33l.15-.15.15-.15v-.15h-.3v.15c-.21,0-.31.05-.31.15v.15h.31ZM60.15,105.32c.31.4.15.61-.46.61,0-.4.15-.61.46-.61M59.24,82.22c-.31.3-.41.45-.31.45-.1.1-.2.15-.3.15l-.3.3v.45h.15c.1,0,.25-.1.46-.3,0-.1.02-.15.07-.15s.08-.05.08-.15c.1,0,.15-.05.15-.15.3-.31.3-.45,0-.45,0,0,0-.15,0-.15ZM58.48,83.59c.1,0,.25-.1.46-.3,0-.1.02-.15.07-.15s.08-.05.08-.15c.1,0,.15-.05.15-.15.3-.31.3-.45,0-.45v-.15c-.31.3-.41.45-.31.45-.1.1-.2.15-.3.15l-.3.3v.45s.15,0,.15,0ZM57.87,85.86h.15v-.15c.2-.4.31-.71.31-.91v-.15l.15-.15c0-.1.05-.2.15-.3-.1,0-.2-.05-.3-.15h-.15c0,.21-.05.35-.15.46-.1.3-.23.56-.38.76-.15.21-.18.4-.08.61h.3v-.02ZM58.17,84.04c0,.21-.05.35-.15.46-.1.3-.23.56-.38.76-.15.21-.18.4-.08.61h.46v-.15c.2-.4.31-.71.31-.91v-.15l.15-.15c0-.1.05-.2.15-.3-.1,0-.2-.05-.3-.15h-.15v-.02ZM58.48,107.6c.2-.1.25.02.15.38-.1.35,0,.38.3.08-.1.2-.2.38-.3.53-.1.15-.25.33-.45.53.3.1.3.28,0,.53-.31.25-.15.38.45.38,0,.2-.18.33-.53.38s-.58.18-.68.38c-.3-.2-.33-.38-.07-.53.25-.15.28-.28.07-.38.2-.1.33-.21.38-.31s.17-.25.38-.45c-.21-.21-.36-.28-.46-.23s-.25.02-.45-.07c.2-.21.45-.36.76-.46.31-.1.45-.35.45-.76M56.81,112.31c0-.21.15-.21.46,0,.3.2.4.1.3-.31.2.31.15.53-.15.69-.3.15-.56.33-.76.53,0-.21.13-.35.38-.46.25-.1.18-.25-.23-.45M56.81,105.62h.3c.2-.21.3-.41.3-.61s.1-.4.31-.61h-.91c0,.1.05.2.15.31v.3c-.1,0-.15.05-.15.15l-.15.15v.31h.15ZM56.81,104.41c0,.1.05.2.15.31v.3c-.1,0-.15.05-.15.15l-.15.15v.31h.46c.2-.21.3-.41.3-.61s.1-.4.31-.61h-.92ZM56.65,113.68c.1.1.2.25.3.45.1.2,0,.35-.3.46.1-.21.1-.38,0-.53s-.1-.28,0-.38M57.26,105.92c-.1,0-.21-.05-.31-.15h-.46v.3h.46l.31-.15h0ZM56.96,106.08l.31-.15c-.1,0-.21-.05-.31-.15h-.46v.3h.46ZM56.35,115.35c.2.1.28.25.23.46-.05.2-.28.2-.69,0,0-.1.08-.15.23-.15s.23-.1.23-.31M56.35,116.41c-.2.3-.33.68-.38,1.14-.05.45-.38.78-.99.99,0-.2.15-.51.45-.91.31-.4.35-.66.15-.76,0-.21.07-.3.23-.3s.33-.05.53-.15M54.68,110.33c.2,0,.33.02.38.07.05.05.18.07.38.07h.31l-.15-.15c-.1-.1-.15-.21-.15-.31l.15-.15c0-.1.05-.15.15-.15,0-.1.05-.2.15-.31h-.46l-.45.61-.3.31h0ZM54.68,110.33c.2,0,.33.02.38.07.05.05.18.07.38.07h.31l-.15-.15c-.1-.1-.15-.21-.15-.31l.15-.15c0-.1.05-.15.15-.15,0-.1.05-.2.15-.31h-.46l-.45.61-.3.31h0ZM52.71,99.85c0,.1.15.1.45,0,.3-.1.56-.15.76-.15,0-.1-.1-.15-.3-.15-.41.2-.71.3-.91.3M53.46,121.12c-.21.1-.33.2-.38.3-.05.1-.18.25-.38.45-.21-.2-.21-.38,0-.53.2-.15.45-.23.76-.23M52.55,99.85v1.22c-.1,0,.1-.21.61-.61s.76-.66.76-.76c.1-.1,0-.15-.3-.15-.21,0-.51.1-.91.3h-.16ZM53.77,97.57c-.31.1-.51.2-.61.3s-.25.25-.45.45c0,.1-.05.21-.15.31-.1.3-.1.51,0,.61h.15c.2-.1.3-.2.3-.3s.05-.21.15-.3c.1-.2.18-.38.23-.53s.17-.33.38-.53M52.71,99.24c.2-.1.3-.2.3-.3s.05-.21.15-.3c.1-.2.18-.38.23-.53s.17-.33.38-.53c-.31.1-.51.2-.61.3s-.25.25-.45.45c0,.1-.05.21-.15.31-.1.3-.1.51,0,.61h.15,0ZM51.64,101.97c-.1.31-.26.68-.46,1.14s-.2.79,0,.99c-.2-.1.05-.51.76-1.22.3-.4.61-.81.92-1.22.3-.4.5-.71.61-.91-.1.1-.38.35-.84.76-.45.4-.63.61-.53.61l-.15.15c.1,0,.15-.05.15-.15-.1,0-.15-.02-.15-.08,0-.05-.1-.07-.3-.07M51.03,104.71c0,.3-.1.61-.31.91-.2.3-.35.56-.45.76,0,.1-.02.15-.08.15-.05,0-.07.05-.07.15v.15h.46c.3-.1.56-.56.76-1.37l.15-.15c0-.3.05-.56.15-.76h-.61v.15h0ZM50.58,106.84c.3-.1.56-.56.76-1.37l.15-.15c0-.3.05-.56.15-.76h-.61v.15c0,.3-.1.61-.31.91-.2.3-.35.56-.45.76,0,.1-.02.15-.08.15-.05,0-.07.05-.07.15v.15h.46,0ZM51.49,124.16c-.21-.3-.38-.38-.53-.23-.15.15-.33.23-.53.23.1.61.05,1.24-.15,1.9-.2.66-.25,1.34-.15,2.05l.61-.76c.1-.1.15-.3.15-.61.1-.31.15-.71.15-1.22v-.46c.2-.51.35-.81.46-.91M51.49,124.16c-.21-.3-.38-.38-.53-.23-.15.15-.33.23-.53.23.1.61.05,1.24-.15,1.9-.2.66-.25,1.34-.15,2.05l.61-.76c.1-.1.15-.3.15-.61.1-.31.15-.71.15-1.22v-.46c.2-.51.35-.81.46-.91M50.43,107.75c-.51,0-.76.51-.76,1.52h.15c.21-.1.33-.33.38-.68.05-.36.13-.63.23-.84M50.43,107.75c-.51,0-.76.51-.76,1.52h.15c.21-.1.33-.33.38-.68.05-.36.13-.63.23-.84M74.43,127.5l.15-.15c-.61.1-1.04.31-1.29.61-.26.3-.74.45-1.44.45.2-.51.48-.66.83-.45.35.2.53.05.53-.46-.71,0-1.22.15-1.52.46-.31.3-.71.56-1.22.76-.31-.51-.61-.53-.91-.07-.31.45-.71.68-1.22.68-.21.2-.59.25-1.14.15-.56-.1-.94.05-1.14.46-.21-.21-.51-.21-.92,0-.4.2-.61.4-.61.61s-.07.1-.23-.3c-.15-.41-.28-.56-.38-.46v.3c-.31,0-.59.17-.84.53-.26.35-.53.73-.84,1.14-.31.4-.59.76-.84,1.06-.25.31-.53.4-.83.31-.51.51-.86.89-1.06,1.14-.21.25-1.17.43-2.89.53-1.12.1-1.97.07-2.58-.08-.61-.15-1.16-.33-1.67-.53-.51-.2-1.01-.45-1.52-.76-.5-.31-1.16-.61-1.97-.91-1.22-.61-2.1-1.04-2.66-1.29-.56-.25-1.14-.73-1.75-1.44l.46-.61c-.51-.41-.86-.59-1.06-.53-.2.05-.4-.38-.61-1.29.1-.1.28-.1.53,0,.26.1.53.1.84,0-.2-.81-.23-1.77-.08-2.89s.18-2.18.08-3.19c.51-.31.91-1.04,1.22-2.21.3-1.17.4-2.1.3-2.81.21.1.3.02.3-.23s.1-.38.31-.38c.81-4.05,1.9-7.88,3.27-11.47,1.36-3.6,2.76-7.17,4.17-10.71.31.2.33.43.08.68s-.33.58-.23.98c.61-.2.91-.63.91-1.29s.2-1.09.61-1.29c.1-.61.3-1.26.61-1.97.3-.7.71-1.32,1.21-1.82-.3-.4-.35-.86-.15-1.37s.4-.91.61-1.22c-1.01.71-1.67,1.85-1.97,3.42s-.86,2.86-1.67,3.87c1.62-5.37,3.57-10.41,5.85-15.12s4.43-9.6,6.45-14.67c.81-1.11,1.55-2.4,2.21-3.87.65-1.47,1.39-2.81,2.2-4.03-.1-.5.08-.88.53-1.14.46-.25.58-.58.38-.99.3-.3.55-.96.76-1.97-.1-.2-.21-.23-.31-.08s-.2.23-.31.23-.02-.15.23-.46c.25-.3.53-.35.83-.15-.4-.5-.38-.96.08-1.36.45-.4.68-1.01.68-1.83h.76c0-.2.15-.55.46-1.06,0-.2-.05-.25-.15-.15s-.21.25-.3.46c1.01-2.84,2.35-5.95,4.03-9.34,1.67-3.39,3.12-6.56,4.33-9.5,1.41-3.85,2.91-7.47,4.48-10.87,1.57-3.39,3.01-6.96,4.33-10.71-.21-.3-.43-.53-.68-.68s-.48-.43-.68-.83c.2-.61.51-.96.91-1.07,1.72.21,3.44.48,5.17.84,1.72.36,2.89,1.39,3.5,3.12-.51,1.32-.81,2.91-.91,4.78-.1,1.88-.45,3.52-1.06,4.94-.51,1.01-.81,2.08-.91,3.19-.1,1.12-.35,2.23-.76,3.34l-5.47,12.16c-.3.91-.71,2.08-1.22,3.5s-.96,2.43-1.37,3.04c-.21.4-.36.73-.46.99-.1.25-.25.63-.45,1.14-1.22,2.33-2.31,4.51-3.27,6.53-.96,2.03-2,4.05-3.12,6.08,0,.21-.07.33-.23.38-.15.05-.23.13-.23.23-1.32,1.82-2.28,3.5-2.89,5.01.2,0,.35.05.46.15-.71.81-1.09,1.57-1.14,2.28s-.48,1.32-1.29,1.83c-.1.3-.05.38.15.23.2-.15.25-.08.15.23-.51.51-.79.99-.84,1.44-.05.46-.33.94-.84,1.45-.81,0-1.22.2-1.22.61.2.21.31.18.31-.07s.15-.33.46-.23c-.21.3-.46.66-.76,1.06-.3.41-.51.71-.61.91,0,.2.2.3.61.3-.2.41-.45.66-.76.76-.31.1-.56.3-.76.61.3.21.53.21.68,0,.15-.2.33-.2.53,0-.21.21-.38.46-.53.76-.15.31-.38.36-.68.15.3.61.28,1.19-.08,1.75-.35.56-.78.99-1.29,1.29,0,.2.07.25.23.15.15-.1.23-.05.23.15-.41.71-.68,1.47-.84,2.28-.15.81-.64,1.37-1.44,1.67.2,1.01.07,1.85-.38,2.51s-.73,1.44-.83,2.35c-.21.1-.38.18-.53.23s-.23.18-.23.38h.46c-.51,1.01-1.04,2.1-1.6,3.26-.56,1.17-.94,2.26-1.14,3.27-.71,0-1.11.38-1.21,1.14-.1.76-.41,1.4-.92,1.9.4,0,.71.1.92.31-.21.61-.41,1.14-.61,1.59s-.4.99-.61,1.59c-.81-.1-1.27-.05-1.37.15-.1.2-.26.4-.46.61.2.3.35.35.46.15.1-.2.4-.25.91-.15,0,.2-.15.35-.46.46-.3.1-.35.31-.15.61-.3.1-.61.1-.92,0l-.61,3.34c-.21,0-.31-.05-.31-.15s-.1-.15-.3-.15c.4-.51.63-1.04.68-1.59.05-.56.08-1.09.08-1.6-.51,0-.84.12-.99.38-.15.25-.25.56-.31.91-.05.35-.13.68-.23.99-.1.3-.35.5-.76.61.4.31.35.66-.15,1.06,0,.1.25.25.76.46-.51,0-.83.15-.98.45-.15.31-.28.61-.38.91.1.1.3.15.61.15-.81,1.11-1.42,2.38-1.82,3.8-.3-.21-.28-.56.07-1.06.35-.51.48-1.01.38-1.52-.71.71-1.17,1.57-1.37,2.58-.2,1.01-.4,1.93-.61,2.73.51-.2.76-.63.76-1.29s.31-1.09.91-1.29c-.51,1.32-.76,2.53-.76,3.65,0,.2.13.23.38.07s.33-.02.23.38c-.71-.2-1.12-.02-1.22.53-.1.56-.26.94-.46,1.14h-.45c-.41,1.11-.66,2.18-.76,3.19-.1,1.01-.15,2.13-.15,3.34.1.2.15.23.15.07s.1-.18.3-.07c.1.5.28.76.53.76s.48.2.68.61c6.99-2.53,13.95-4.89,20.89-7.07,6.94-2.18,14.51-3.72,22.72-4.63.81,0,1.37-.07,1.67-.23.31-.15.91-.23,1.83-.23-.21-.1-.15-.18.15-.23.3-.05.55-.13.76-.23h4.71c1.32-.31,2.86-.51,4.63-.61s3.5-.05,5.17.15,3.24.53,4.71.99c1.47.45,2.17-.13,3.08.78-.2.1.21.27.26.37.05.1-.3-.22-.2-.17s-.27-.8-.17-.65c.1.15.47.51.37.82-.26-2.79,1.18-.36,1.33-.21s-1.7-2.16-1.7-1.86c-.1-.3,1.71,1.64,1.51,1.59-.2-.05-1.48,1.45-1.68,1.25-.41.2-.4-2-.05-1.89.35.1-.08.93-.29,1.13,0,.1.21-1.22,0-1.52-1.45-2.05-.27,1.3-.87,1.15-.61-.15-.66,1.55-1.37,1.64l2.06-1.07c-.41-.3-1.35.91-1.7,1.31-.35.4.94-.49.73-.7-.2-.21-1.6.07-1.24.18.35.1,1.34.25,1.34.05-.1-.2-.2-.81-.45-.71-.25.1-.32-.77-.73-.97l-.16,1.63c-.3,0-.15.41-.45.31-.81-.21-1.83.42-3.1.42s-2.32,1.29-3.13,1.6c-.21.1-.28.05-.23-.15.05-.21-.02-.41-.23-.61v.76l-1.06-.93-.08.71c-.81-.1-1.98.28-3.64.38-1.67.1-3.24.25-4.71.46-1.47.2-2.56.38-3.27.53s-.51.23.61.23v.46c.2-.21.63-.38,1.29-.53.66-.15,1.14-.23,1.44-.23s.38.05.23.15-.23.2-.23.31h.61c0-.21.4-.33,1.22-.38.81-.05,1.47-.18,1.97-.38,0,.2.1.25.31.15.2-.1.35-.21.45-.3.81-.21,1.65-.18,2.51.07s2.18-2.34,3.09-2.54l.73.94-.37-.31c-.21.2,0,0,.25-.15s.2-.4,0,0c-1.93.2-3.74,1.34-5.66,1.49-1.93.15-3.84,1.61-5.56,1.41.2.1.25.18.15.23s-.3.1-.61.15c-.31.05-.58.08-.84.08h-.53c-1.01,0-1.72.23-2.13.68-.4.46-1.01.68-1.82.68,0-.3-.15-.56-.46-.76-1.82.71-3.8,1.06-5.92,1.06.1.2.2.3.3.3s.05.15-.15.45c-.21-.81-.3-.81-.3,0-.21,0-.33-.1-.38-.3-.05-.21-.18-.31-.38-.31-.1,0-.15.1-.15.31v.3c-.81,0-1.45.1-1.9.3-.46.2-1.04.25-1.75.15,0-.21.05-.28.15-.23s.15-.03.15-.23c-.21,0-.46.18-.76.53s-.71.48-1.22.38l.92-.31c-1.32,0-1.93.31-1.83.91h-1.52c0-.1.1-.15.3-.15s.3-.1.3-.3c-.51,0-.79.05-.84.15s-.18.25-.38.46c-.2-.21-.35-.25-.45-.15s-.26.1-.46,0l-.91.46h-.15.15l-.15.15c-1.01.71-2.08.76-3.19.15-.51.4-1.04.63-1.59.68-.56.05-.89.23-.99.53v.15h-.15l.06.02Z"/>
  <path class="st0" d="M172.49,107.79c-.1,0-.15.04-.16.14l.16-.14ZM171.86,108.22c.2,0,.36-.03.46-.13v-.15l-.45-.02c-.1,0-.15.05-.16.14l.15.16ZM171.57,107.9c0,.1-.06.15-.16.15-.21.09-.36.11-.46.06-.1-.06-.2-.03-.31.06-.1,0-.15.05-.16.14.21-.09.53-.05.98.12s.77.22.98.12l.32-.29c-.1,0-.2.02-.3.06-.11.04-.21.07-.31.06h-.3v-.17h-.15l-.14-.17v-.15h.01ZM171.57,107.9c0,.1-.06.15-.16.15-.21.09-.36.11-.46.06-.1-.06-.2-.03-.31.06-.1,0-.15.05-.16.14.21-.09.53-.05.98.12s.77.22.98.12l.32-.29c-.1,0-.2.02-.3.06-.11.04-.21.07-.31.06h-.3v-.17c.2,0,.36-.03.46-.13v-.15l.17-.14c-.1,0-.15.04-.16.14l-.46-.02c-.1,0-.15.05-.16.14l.15.16h-.15l-.14-.17v-.15h.01ZM168.13,113.22c-.41.18-.9.29-1.46.31-.56.02-.53,0,.08-.08.31-.19.78-.27,1.38-.24M164.3,113.8c.21-.19.49-.28.85-.27.35.02.64-.02.84-.11-.21.2-.5.31-.85.34-.36.04-.63.05-.84.04M174.58,108.8c-.1,0-.15.02-.16.07,0,.05-.06.08-.16.07-.1,0-.15-.03-.15-.09,0-.05.05-.07.16-.07l.16-.15c-.1-.1-.3-.17-.6-.18s-.56-.03-.76-.04l-.16.15c0,.1.04.15.14.16l.61.03h.3c-.2,0-.33.02-.38.07-.06.05-.13.07-.23.07l-6.68-.31-1.24.4c-.51.08-1.07.08-1.67,0-.6-.08-1.21-.08-1.82,0,0,.1-.03.18-.08.22-.06.05-.08.12-.09.23l.62-.12h.3l9.12.13c.2,0,.43.04.68.11.25.06.47.1.68.11l.31-.14h.3l.32-.28c.1,0,.15-.04.16-.14.1,0,.15-.05.16-.14l.16-.15h0ZM160.5,113.78c.2,0,.4.04.61.1.2.06.24.19.13.39-.09-.21-.29-.27-.6-.18-.31.09-.35-.02-.14-.31M171.81,109.43l-9.12-.12c-.2,0-.35,0-.46.05s-.26.07-.46.06l-1.53.08-.61-.03c.21-.09.39-.18.55-.28.16-.09.34-.14.54-.13.31-.09.72-.12,1.22-.1.61-.07,1.22-.07,1.82,0,.61.08,1.16.08,1.67,0l1.24-.4,6.68.31c.1,0,.17-.02.23-.07.05-.05.18-.07.38-.06h-.3l-.61-.04c-.1,0-.15-.06-.14-.16l.16-.15c.2,0,.46.02.76.04.31,0,.5.08.6.18l-.16.15c-.1,0-.15.02-.16.07,0,.05.05.08.15.09.1,0,.15-.02.16-.07,0-.05.05-.07.16-.07l-.16.15c0,.1-.06.15-.16.14,0,.1-.06.15-.16.14l-.32.29h-.3l-.31.12c-.21,0-.43-.04-.68-.11s-.48-.1-.68-.11M157.89,107.88c-.1,0-.21.04-.31.14l.61-.12h-.3v-.02ZM158.02,118.07c-.21.19-.37.36-.48.51s-.37.21-.77.19c.21-.19.4-.36.56-.51.16-.14.39-.21.69-.19M157.27,108l-.16.14.46-.13h-.3ZM157.27,108l-.16.14,1.82.09-.14-.16-.3-.17-.61-.03c-.1,0-.21.04-.31.14h-.3ZM156.04,121.48c-.04.81-.38,1.5-1.01,2.08.14-.81.47-1.5,1.01-2.08M156.03,118.29c-.11.09-.31.13-.62.12l-.15.15v.15h.14l.61.03c.1,0,.15-.04.16-.14v-.15l-.14-.15h0ZM156.03,118.29c-.11.09-.31.13-.62.12l-.15.15v.15h.14l.61.03c.1,0,.15-.04.16-.14v-.15l-.14-.15h0ZM155.3,114.45c.2.11.37.12.53.02.16-.09.33-.14.54-.13-.19-.41-.54-.38-1.07.1M155.33,126.92c.2.11.14.31-.18.6-.31.29-.52.28-.61-.03,0-.2.14-.3.39-.28.25,0,.38-.09.39-.29M154.73,129.94c-.03.71-.3.95-.8.72.02-.5.29-.75.8-.72M154.95,118.69c-.22.2-.32.34-.33.44v.15c0,.1-.07.2-.17.29v.3c.19,0,.3-.03.3-.14h.15v-.14l.02-.45c0-.2.07-.35.17-.45h-.15,0ZM154.95,118.69c-.22.2-.32.34-.33.44v.15c0,.1-.07.2-.17.29v.3c.19,0,.3-.03.3-.14h.15v-.14l.02-.45c0-.2.07-.35.17-.45h-.15,0ZM153.54,132.62c-.3-.12-.44-.27-.43-.48.2,0,.38-.03.54-.13.16-.09.28-.09.38.02.09.21.06.31-.09.3-.15,0-.29.09-.4.29M153.11,131.99v.15c-.21,0-.31-.06-.3-.17h.3v.02ZM152.03,135.59c.7.14.81.44.34.93-.48.49-.82.72-1.02.71.23-.7.35-1,.35-.9s.11-.15.34-.74M151.04,137.37c.31-.08.54-.07.68.03.15.11.32.17.52.18-.21.2-.42.34-.63.43s-.42.18-.62.27c.21-.29.22-.47.02-.53s-.2-.18.02-.38M150.8,139.19c0,.1.15.11.45.02.31-.09.41-.03.3.16.08.41-.08.56-.48.44s-.49-.33-.27-.62M153.67,133.08c-.11.2-.3.42-.56.66s-.5.46-.72.65c-.5-.22-.82-.27-.98-.12-.16.14-.34.11-.53-.1.12-.5.28-.62.47-.36.19.27.44.35.75.26.3-.09.52-.3.64-.66.11-.34.43-.46.93-.34M151.53,126.75c.09.21.08.36-.02.45,0,.1-.06.15-.16.14-.11.1-.16.2-.17.3v.15c.09.11.19.16.29.17l.15-.15c.11-.09.19-.24.25-.45.06-.2.14-.4.25-.59l.16-.15-.76-.03v.15h.01ZM151.18,127.8c.09.11.19.16.3.17l.15-.15c.11-.09.19-.24.25-.45.06-.2.14-.4.25-.59l.16-.15-.76-.03v.15c.08.21.08.36-.03.45,0,.1-.06.15-.16.14-.11.1-.16.2-.17.3v.15h0ZM154.12,129.91c-.3,0-.4-.12-.29-.32-.51.08-.61.18-.31.29.3.12.39.32.27.62-.81-.04-1.25.07-1.31.32-.07.25-.21.62-.43,1.12.31-.09.58-.38.8-.87.19.21.45.28.75.19.31-.09.56-.13.77-.12-.12.4-.28.59-.49.58-.2,0-.56-.03-1.06-.05v.3c-.43.19-.64.38-.65.58-.21,0-.25-.06-.14-.16.1-.09.06-.15-.14-.16-.21,0-.38.06-.54.2-.16.14-.14.22.06.23-.61.18-.65-.15-.1-.99.54-.84,1.03-1.4,1.44-1.68-.28-.52-.06-.91.67-1.19.72-.27,1.34-.54,1.86-.83.18.41.12.69-.19.83-.31.13-.37.41-.19.83-.39-.22-.8-.29-1.21-.21.1.11.25.16.45.17s.2.11,0,.3M151.06,140.11c-.21.09-.35.34-.41.74-.07.41-.25.5-.54.28.22-.3.33-.6.35-.9,0-.3.22-.34.61-.12M150.56,134.46c.31-.09.4.07.28.47s-.28.5-.47.28c-.09-.21-.06-.33.1-.38.15-.04.18-.17.09-.38M150.65,142.38c-.12.3-.3.44-.55.43-.25,0-.48-.02-.68-.03.11-.2.32-.34.63-.42s.51-.08.61.03M149.32,144.9c.21-.09.24.21.11.92-.14.7-.41.99-.8.87.02-.51.12-.89.28-1.13s.3-.47.41-.67M148.66,142.58c.3,0,.45.15.44.4s-.22.32-.62.2c-.09-.21-.03-.41.18-.6M148.39,138.62c.2.11.4.09.61-.05s.47-.31.79-.5c.11-.2.09-.23-.07-.08s-.34.11-.53-.1c.32-.29.51-.61.58-.96s.21-.77.44-1.27c.2.11.35.12.46.02.1-.09.26-.14.46-.13.08.31.08.46-.02.45-.1,0-.22.2-.33.6-.1,0-.1-.13.02-.38.11-.25.07-.38-.13-.39-.32.39-.49.76-.51,1.12-.02.35.13.59.43.7-.22.2-.37.31-.48.36-.1.05-.11.17-.02.38-.1.1-.31.14-.61.12.09.21,0,.38-.25.52-.26.14-.19.22.22.24-.42.19-.77.27-1.08.26.31-.09.44-.23.4-.44-.04-.2-.16-.36-.36-.48M149.54,140.19c-.31.19-.54.56-.66,1.11-.12.56-.35,1.02-.67,1.41-.21,0-.46-.04-.75-.11-.3-.06-.4-.25-.28-.55.5.02.75.09.75.19s.1,0,.32-.29c.11-.2-.09-.31-.6-.33,0-.3.1-.5.26-.59.16-.09.24-.29.25-.6.39.32.62.33.68.03s.29-.39.7-.27M146.97,142.96c.61-.07,1.01,0,1.21.21-.11.1-.22.22-.32.37-.11.15-.26.12-.45-.1,0-.1-.07-.18-.22-.24-.15-.06-.22-.13-.22-.24M146.41,145.22c-.08-.31.07-.45.48-.44.4.02.55.18.44.48l-.91-.04h0ZM145.3,149.58c-.1-.11.36-.14,1.37-.09-.75.78-1.33,1.18-1.73,1.22-.41.03-.29-.34.36-1.13M145.75,110.35c-.5-.12-.86-.09-1.07.1l1.06.05v-.15h.01ZM144.3,108.91c-.3-.11-.63-.18-.98-.19-.35-.02-.44.08-.24.29,0-.1.2-.04.6.18.39.22.6.13.62-.28M139.59,174.11c-.1,0-.2.04-.31.14,0-.1.03-.15.08-.15s.08-.05.08-.15l.14.16h0ZM139.08,175.46c.4.12.59.38.57.79h-.3c0-.12-.08-.37-.27-.79M138.91,172.4c-.21,0-.19-.31.04-.91l.33-.44c.1,0,.12.18.05.53-.07.35-.21.62-.42.81M139.28,174.25c-.12.3-.18.7-.21,1.21-.1-.11-.3-.17-.6-.18.21-.2.35-.36.4-.51.06-.15.19-.32.41-.51M138.28,176.18c.2,0,.4.07.6.18.2.11.3.06.31-.14l-.91-.04ZM146.08,109.76c-.71-.03-1.54-.1-2.5-.2-.96-.09-1.76.1-2.39.57,1.02-.15,1.89-.22,2.6-.18.71.03,1.47-.03,2.29-.19M138.13,176.17l-.14-.16v.15h.14ZM138.29,172.68c0,.2-.04.33-.09.38-.06.05-.08.17-.09.38.41-.18.47-.43.18-.75M138.14,175.87c-.17-.61-.25-1.08-.24-1.38.17.61.25,1.08.24,1.38M141.39,109.24c-.21.2-.47.26-.77.19-.3-.06-.56.05-.77.34.21-.09.56-.12,1.07-.1.5.02.66-.12.47-.44M143.35,112.83c-1.52-.07-2.84.12-3.98.57,1.61.28,2.93.09,3.98-.57M133.58,113.74c-.61-.03-.97.11-1.08.4.3.12.66-.02,1.08-.4M132.09,112.91c-.51-.02-.81.02-.92.11-.1.1-.26.19-.47.28.91.04,1.37-.09,1.38-.39M130.15,115.56c0-.1.11-.15.31-.14.62-.17,1.08-.25,1.38-.24.61.03.96-.05,1.08-.25h.3c.2.02.39-.02.54-.11.16-.09.34-.14.54-.13.21-.09.34-.11.39-.06.05.06.17.09.38.1l-.16.15c-.11.09-.26.14-.46.13h-.15v.29c-.73.17-1.39.29-2,.37s-1.43.19-2.45.34h-.15v-.15c.21-.19.36-.29.47-.28M134.29,114.69c-.2,0-.38.04-.54.13-.15.09-.34.14-.54.13h-.3c-.11.18-.47.27-1.08.24-.3,0-.77.07-1.38.24-.21,0-.31.04-.31.14-.1,0-.26.09-.47.28v.15h.14c1.02-.15,1.84-.27,2.45-.34.61-.07,1.28-.19,1.99-.37v-.3h.16c.2.02.36-.03.46-.12l.16-.15c-.21,0-.33-.04-.38-.1-.05-.05-.18-.03-.39.06M128.63,115.49v-.15c0,.1-.02.15-.07.15s-.08.05-.08.15l.15-.15h0ZM128.63,115.34c0,.1-.03.15-.08.15s-.08.05-.08.15l.15-.15v-.15h.01ZM128.5,111.68c.09.21.24.22.45.02h.15v-.14c-.19-.21-.34-.27-.45-.17l-.16.14v.15h.01ZM128.5,111.68c.09.21.24.22.45.02h.15v-.14c-.19-.21-.34-.27-.45-.17l-.16.14v.15h.01ZM128.47,115.64c-.11.2-.19.27-.24.22s-.07-.03-.08.07l.45.02c.1,0,.15.04.15.09s.05.08.15.08h.15c.1-.09.21-.16.31-.21.1-.04.21-.17.32-.37v-.15h-.14c-.1,0-.15.05-.16.15-.62.17-.92.21-.92.11M128.15,115.92l.45.02c.1,0,.15.04.15.09s.05.08.15.08h.15c.1-.09.21-.16.31-.21.1-.04.21-.17.32-.37v-.15h-.14c-.1,0-.15.05-.16.15-.62.17-.92.21-.92.11l-.32.29h.01ZM128.44,113.05l-.31.14c.1,0,.2-.04.31-.14M123.83,114.05c-.91-.04-1.37,0-1.37.09.3.12.6.18.9.19.3,0,.46-.08.47-.28M100.57,110.53c.02-.51.17-1.06.46-1.65.28-.6.53-1.14.76-1.64.08.51-.05,1.04-.38,1.58-.33.55-.61,1.11-.84,1.71M95.2,124.58c-.21.09-.29.19-.24.29.04.11.01.21-.09.3h.15v-.14c0-.1.03-.15.09-.15.05,0,.08-.05.08-.15l.16-.15h-.15ZM95.2,124.58c-.21.09-.29.19-.24.29.04.11.01.21-.09.3h.15v-.14c0-.1.03-.15.09-.15.05,0,.08-.05.08-.15l.16-.15h-.15ZM139.61,173.8c-.1,0-.13.02-.08.08.05.05.02.08-.08.07-.2-.11-.45-.17-.75-.19-.31,0-.5-.13-.59-.33-.12.3-.18.65-.2,1.06-.08-.61-.12-1.17-.15-1.68s-.04-.79-.04-.84.02.2.04.76c.03.55.05,1.6.09,3.12h.3v.16-.15c.2,0,.38.04.53.1.15.06.38.14.67.26.28.52.06.91-.66,1.19.3.11.4.2.29.24-.1.04-.28.09-.54.13-.26.04-.46.13-.62.28-.16.15-.14.32.05.53.5.12.72.21.67.26-.05.05.17.19.67.41-.82.07-1.25.09-1.3.09s-.08.1-.09.3c-.4-.12-.58-.2-.52-.25.05-.05-.18-.14-.67-.26-.1,0-.28,0-.53-.02-.25,0-.33.03-.24.14-.9-.24-1.47-.5-1.72-.76-.24-.26-.41-.5-.5-.71,0-.2-.15-.61-.48-1.24-.33-.62-.51-1.65-.54-3.07-.13-3.66.18-7.62.94-11.9.75-4.27,1.66-8.37,2.7-12.27,1.04-3.91,2.11-7.38,3.22-10.42s1.89-5.16,2.35-6.36c.11-.2.21-.27.31-.21.1.06.25,0,.46-.21.22-.3.2-.42-.06-.39-.26.04-.38-.04-.37-.24.52-2.51,1.36-5.31,2.52-8.4,1.15-3.09,2.19-5.83,3.12-8.22-.41.19-.77.27-1.08.26-1.42.04-2.82.07-4.19.11-1.37.03-2.72.13-4.04.27-.2-.21-.55-.28-1.05-.2-.52.08-1.02.21-1.54.39.23-.5.54-.71.94-.64.4.07.71,0,.92-.18-.39-.22-.82-.32-1.28-.29-.46.03-.89.09-1.3.17,0,.3.06.41.21.31.16-.1.33-.14.54-.13-1.25.76-2.87,1.16-4.85,1.22-1.98.06-3.79.26-5.43.59.12-.4.43-.59.94-.57.51.02.92-.06,1.23-.25-1.11-.15-2.43-.06-3.97.27-1.54.34-2.86.37-3.96.12-.93.46-2.11.72-3.53.75-1.42.04-2.65.28-3.68.74.61-.07,1.27-.14,1.99-.21.71-.07,1.48-.18,2.3-.35.51-.08,1.05-.15,1.61-.23.56-.07,1.05-.26,1.47-.54.2,0,.2.11,0,.3,1.12-.05,2.09-.13,2.9-.24s1.68-.15,2.59-.11c-2.35.4-4.88.76-7.58,1.09s-5.03.86-6.99,1.58c-.5-.12-1.01-.15-1.52-.07-.51.08-.92.26-1.24.55-.61.08-.84.11-.69.12.15,0,.35.02.61.03.25,0,.46.05.61.11s0,.18-.4.36c-.52.28-1.01,1.04-1.47,2.29-.47,1.25-.87,2.22-1.2,2.91-.24.8-.59,1.72-1.04,2.77-.45,1.04-.88,2.12-1.29,3.21-.41,1.1-.84,2.11-1.28,3.06-.45.94-.79,1.71-1.02,2.31-.82,2.29-1.67,4.92-2.57,7.87-.9,2.95-1.52,5.89-1.85,8.81-1.12.05-1.69.35-1.72.91s0,1.04.09,1.45c-.19-.31-.56-.56-1.11-.73-.55-.18-1.12-.33-1.73-.46-.6-.13-1.23-.28-1.88-.47-.65-.18-1.17-.38-1.57-.61-.78-.75-1.17-1.7-1.16-2.87,0-1.17-.02-2.31-.07-3.42.33-.49.5-.97.52-1.42.02-.46.1-1.09.24-1.89.51-.08.69-.02.52.18-.16.2.01.25.52.18.21-.2.33-.42.34-.67.01-.25.08-.58.2-.98,0-.2-.09-.26-.3-.17-.21.09-.25.04-.15-.16-.09-.1.16-.14.77-.12l.88-2.54c-.08-.41-.18-.49-.29-.24s-.26.27-.46.06c.31-.09.52-.33.64-.73s.24-.88.37-1.43c.12-.55.23-1.05.3-1.51.07-.45.11-.73.12-.83,0-.2-.02-.23-.08-.08-.06.15-.19.17-.38.06,0-.1.03-.18.09-.22.05-.05.08-.12.09-.23,0,.1.04.15.14.16.1,0,.21-.19.33-.59s.21-.83.29-1.28c.07-.45.12-.88.13-1.28.02-.4.03-.65.03-.76.01-.2.2-.4.56-.58.36-.19.55-.38.56-.58.62-.28.95-.82.99-1.63s.22-1.56.56-2.26c0-.2-.06-.25-.22-.16s-.24.19-.24.29c-.2-.11-.22-.29-.05-.53.16-.24.25-.47.26-.67.4.02.66-.07.77-.27.01-.2-.07-.28-.22-.24-.15.05-.23-.03-.22-.24,0-.1.06-.17.16-.22.1-.04.11-.17.02-.38.4.02.67-.25.8-.8.13-.55.09-.93-.1-1.15-1.12.05-2.14.16-3.06.32s-1.78.22-2.6.19l-.32.29-.16.14c-2.35.4-4.22.82-5.61,1.26-1.39.44-2.68.92-3.87,1.42s-2.46,1-3.8,1.49c-1.34.5-3.14,1-5.4,1.5-.38-.62-.49-1.44-.34-2.45s.14-1.87-.03-2.59c-.08-.31-.17-.62-.26-.92-.08-.31-.02-.56.19-.75.21-.09.36-.08.46.02.09.11.24.22.44.33,1.76-.73,3.54-1.33,5.33-1.81,1.8-.47,3.72-.97,5.77-1.48,1.34-.44,2.37-.81,3.1-1.07.72-.27,1.39-.49,2.01-.67.61-.17,1.26-.35,1.93-.52.66-.17,1.66-.38,3-.62.71-.17,1.51-.33,2.38-.5.87-.16,1.81-.32,2.84-.48,1.02-.15,1.55-.49,1.57-.99.22-.3.22-.39,0-.3s-.26.04-.15-.16c0-.2.04-.33.09-.38s.03-.18-.06-.38c.19.21.39.32.59.33.44-.69.81-1.58,1.12-2.68.3-1.1.84-2.19,1.6-3.27-.2-.11-.3-.06-.31.14s-.16.24-.46.13c.55-.99,1.06-2.03,1.51-3.13.45-1.09.96-2.18,1.52-3.28.1,0,.18,0,.23-.06s.18-.07.38-.06c-.2-.11-.25-.16-.14-.16.1,0,.16-.1.17-.3.11-.2.03-.27-.22-.24-.25.04-.33-.09-.21-.39.5.13.76,0,.78-.42,0-.2-.04-.23-.14-.09-.11.15-.27.22-.47.21,1.46-3.18,3.04-6.42,4.71-9.75,1.68-3.32,3.2-6.57,4.56-9.75,1.2-1.67,2.14-3.38,2.82-5.12.69-1.74,1.47-3.41,2.36-4.99.57-1.29,1.15-2.43,1.76-3.42.6-.98.88-2.03.83-3.15.43-.59.87-1.18,1.3-1.77.43-.59.77-1.28,1.01-2.08.34-.79.76-1.66,1.26-2.6.5-.94.77-1.76.8-2.47.63-.58,1.49-.92,2.56-1.02,1.07-.1,2.16-.05,3.26.15,1.11.2,2.16.48,3.15.83,1,.35,1.74.69,2.24,1.02-.14.81-.28,1.63-.42,2.49s-.48,1.53-1.01,2c-.93,2.49-1.93,4.83-2.99,7.01-1.07,2.18-2.25,4.21-3.55,6.07-3.24,6.34-6.37,12.74-9.41,19.18-3.04,6.45-6.09,13.16-9.15,20.11.31,0,.71-.02,1.22-.1s1.07-.15,1.68-.23c.2,0,.3.12.29.32.71-.07,1.17-.12,1.38-.17.2-.04.36-.06.46-.05.1,0,.26,0,.46.02.2,0,.66-.07,1.38-.24.1,0,.15.06.14.16,1.03-.46,2.11-.71,3.23-.76,1.12-.05,2.39-.14,3.81-.28,0,.1.05.15.15.16.83-.37,1.77-.52,2.84-.47,1.06.05,2.01-.16,2.84-.63.3,0,.5.08.6.18.2,0,.38-.03.54-.13.16-.09.39-.13.69-.12l-.93.26c1.12-.05,2.19-.2,3.22-.46,1.02-.26,2.25-.4,3.67-.44l-.02.46c.31-.19.57-.25.77-.19s.5.05.91-.04l.33-.59c1.42-.03,2.89-.04,4.41-.02,1.52.02,3.04-.04,4.57-.17l1.06-3.3c0-.1.11-.15.31-.14,1.17-3.29,2.46-6.6,3.89-9.93,1.42-3.33,2.87-6.74,4.35-10.22l2.89-6.56c.21-.19.25-.45.11-.75-.14-.31-.05-.56.26-.75l.32-.29c.21-.19.32-.34.33-.44.23-.5.4-.99.52-1.5.13-.5.2-1,.22-1.51.95-.87,1.54-1.98,1.75-3.34.22-1.36.75-2.57,1.62-3.65.24-.8.39-1.43.47-1.88.07-.45.22-.93.45-1.42l2.69-5.5c.77-1.38,1.52-2.69,2.23-3.93.72-1.23,1.26-2.45,1.62-3.65.11-.3.12-.55.03-.76s-.13-.41-.12-.62c.37-1.5,1.05-2.99,2.03-4.47.98-1.47,1.66-2.96,2.03-4.47-.1.1-.23.17-.39.21-.15.04-.34.16-.55.35.02-.4.11-.78.28-1.13.16-.35.36-.67.58-.96.22-.39.44-.69.65-.88.54-.68,1.15-1.32,1.84-1.89.69-.58,1.3-1.21,1.84-1.89.3.12.6.18.9.19.89.55,1.75.99,2.6,1.34.85.34,1.87.64,3.08.9l.46.02v.15l1.01.96c.07.51.07,1.1,0,1.75-.08.66-.25,1.49-.5,2.49-.24.8-.43,1.6-.57,2.41-.14.81-.33,1.61-.57,2.41-.36,1.1-.83,2.02-1.42,2.75s-1.11,1.5-1.55,2.28c0,.31.07.59.27.85.19.27.18.54-.04.84-.35,1-.8,1.91-1.35,2.75s-.99,1.76-1.35,2.75c-.54.79-.96,1.65-1.26,2.6-.3.95-.73,1.92-1.28,2.91-.34.8-.73,1.54-1.17,2.23s-.93,1.53-1.49,2.51c-2.15,4.67-4.01,8.89-5.61,12.67s-3.4,7.65-5.41,11.61c.29.32.33.55.12.69s-.22.32-.02.53c0,.3-.23.45-.63.43-.04.91-.38,1.65-1.02,2.23-.02.4.05.66.2.77.14.11.21.42.18.92-.21.09-.34.24-.4.44s-.19.3-.39.29c.09.31.02.69-.21,1.13-.23.45-.47.89-.75,1.34-.28.44-.47.87-.59,1.26-.12.4-.09.81.1,1.22-.32.29-.61.58-.88.87s-.61.53-1.02.72c.2,0,.4.04.61.1.2.06.4.09.6.1l-1.49,2.52c.51.02,1.06.02,1.68,0,.61-.02,1.16-.02,1.67,0,0-.1-.24-.16-.75-.19.51-.08,1.22-.14,2.14-.2.91-.06,1.85-.07,2.81-.02.96.04,1.92.11,2.88.21s1.74.26,2.33.49c-.22.2-.37.37-.48.51-.11.15-.07.33.13.54.5.22.84.52,1.02.88.19.37.47.76.86,1.18-.7-.24-1.59-.28-2.66-.12-1.07.15-1.91.21-2.52.18.6.23,1.2.29,1.82.16.62-.12,1.27-.07,1.97.17-.84.68-1.79.96-2.86.86-1.06-.1-2.11-.02-3.13.23.11-.3.07-.45-.13-.46-.2,0-.45.03-.76.11-.31.09-.64.18-1,.26-.36.09-.69.07-.98-.04.29.32.28.39,0,.23-.3-.16-.55-.25-.75-.26-.92.06-1.94.22-3.06.47-1.13.25-2.16.56-3.08.92-.41-.02-.66-.08-.75-.19l-1.06-.05c0,.1-.11.25-.32.44.1-.09.31-.08.61.03-.21.2-.34.31-.4.36s.07.18.36.4c.21-.09.39-.16.54-.21.15-.04.19-.22.1-.53.21-.19.36-.21.46-.05.09.16.24.24.45.25-.44.69-.73,1.39-.86,2.09-.2,0-.41.19-.63.58s-.53.53-.93.41c.65-.88.84-1.68.57-2.4-.2-.11-.42-.1-.69.04-.26.14-.49.15-.68.04.49.23.69.42.58.56-.11.15.03.48.41,1.01-.43.39-.86.6-1.32.62-.46.03-.75.25-.86.64.1-.09.21-.14.31-.14l.6.33c.2,0,.38-.03.54-.13.16-.09.34-.24.55-.43,0,.31-.16.6-.42.89-.27.29-.46.69-.59,1.19.3,0,.46-.23.49-.74.69.44.74.85.17,1.23-.58.38-1.12.55-1.62.53,0,.21.11.29.37.25.25-.04.43-.06.53-.05-.12.3-.28.42-.48.36s-.4,0-.62.2c.08.51-.13,1.11-.62,1.79-.49.69-.85,1.43-1.09,2.23.2.11.45.04.77-.19s.43-.61.36-1.13c.21-.09.36-.11.46-.05.1.05.35.09.75.11.21-.19.35-.52.42-.97.07-.45.17-.88.29-1.28,0,.31.18.52.58.64-.22.19-.4.42-.56.66s-.15.48.04.68c-.33.5-.5,1.02-.53,1.58-.03.55-.45.96-1.27,1.23.65-.98.99-1.73,1.02-2.24-.41.08-.68.3-.79.65-.12.35-.24.67-.35.97-.51-.02-1.07.16-1.7.53,0,.2.06.36.21.47.14.11.21.31.2.62.5.13.76.03.77-.27,0-.3.12-.35.31-.14-.23.5-.65.81-1.26.93s-1.13.17-1.53.15c-.21.2-.14.27.22.24.36-.04.48.05.37.24-.41-.02-.66.02-.76.12-.11.1-.26.04-.45-.17-.11.2-.22.37-.33.52-.11.15-.22.47-.35.97.3.11.54,0,.7-.35.17-.34.35-.46.55-.35-.02.51-.09.83-.19.98-.11.15-.28.42-.5.81-.3,0-.3-.12,0-.3s.37-.39.18-.6c-.2-.11-.32-.11-.38-.02-.06.1-.19.14-.39.13-.22.3-.28.5-.18.6.09.1.04.15-.16.14,0,.2.24.31.74.34-.23.5-.5.84-.81,1.03s-.54.63-.67,1.34c.2,0,.4.12.6.33-.21.09-.44.26-.71.5s-.42.77-.45,1.58c0,.2.08.31.29.32.2,0,.3.11.29.31-.95.87-1.53,1.76-1.72,2.66-.19.9-.68,1.95-1.44,3.13.09.11.2.14.3.09.11-.05.2-.02.3.09-.44.79-.94,2.11-1.48,3.96s-1.09,3.8-1.64,5.86c-.55,2.05-1.05,3.98-1.49,5.79-.44,1.8-.78,3.01-1.01,3.61-.11.3-.07.53.12.69.2.16.34.35.43.55-.4-.12-.61-.08-.62.12,0,.2.19.26.6.18-.92.26-1.43.85-1.53,1.76-.1.91-.41,1.75-.96,2.54.19.21.25.52.18.92s-.06.76.03,1.07c.12-.4.35-.97.69-1.71.34-.75.46-1.27.38-1.58.09.11.14.36.12.77-.02.4-.07.81-.13,1.21-.07.4-.19.77-.35,1.12-.17.35-.41.51-.71.5l.14.16c-.1,0-.15.04-.16.14v.31l-.17.14c0,.1-.04.15-.09.14-.05,0-.08.05-.08.15-.22.19-.35.36-.4.51-.06.15-.14.32-.25.52l1.31,1.28h.02Z"/>
</svg>